<?xml version="1.0" encoding="utf-8"?>
<!-- Generator: Adobe Illustrator 25.4.1, SVG Export Plug-In . SVG Version: 6.00 Build 0)  -->
<svg version="1.1" id="Layer_1" xmlns="http://www.w3.org/2000/svg" xmlns:xlink="http://www.w3.org/1999/xlink" x="0px" y="0px"
	 viewBox="0 0 500 500" style="enable-background:new 0 0 500 500;" xml:space="preserve">
<style type="text/css">
	.st0{fill:#6ACAC9;}
	.st1{opacity:0.7;fill:#FFFFFF;enable-background:new    ;}
	.st2{fill:#263238;}
	.st3{fill:none;stroke:#263238;stroke-linecap:round;stroke-linejoin:round;}
	.st4{fill:#FFFFFF;stroke:#263238;stroke-linejoin:round;}
	.st5{fill:#263238;stroke:#263238;stroke-linejoin:round;}
	.st6{fill:none;stroke:#263238;stroke-linejoin:round;}
	.st7{fill:#263238;stroke:#263238;stroke-miterlimit:10;}
	.st8{fill:#808080;stroke:#263238;stroke-linecap:round;stroke-linejoin:round;}
	.st9{fill:#6ACAC9;stroke:#263238;stroke-miterlimit:10;}
	.st10{fill:#FFFFFF;stroke:#263238;stroke-linecap:round;stroke-linejoin:round;}
	.st11{fill:#575757;stroke:#263238;stroke-linecap:round;stroke-linejoin:round;}
	.st12{fill:#FFFFFF;stroke:#263238;stroke-width:0.5;stroke-linejoin:round;}
	.st13{fill:none;stroke:#263238;stroke-miterlimit:10;}
	.st14{fill:#FFFFFF;stroke:#263238;stroke-miterlimit:10;}
</style>
<g id="freepik--background-simple--inject-177">
	<path class="st0" d="M457,228.2c0,0-6-99.1-85-147.3C335.1,58.3,289.6,44.1,244.6,44C200,43.9,153.1,59.6,131,97.8
		c-14.2,24.5-16.3,51.9-23.6,78.4C90.2,239.1,0,278.1,23,351.6c6.8,21.7,24.1,39.6,44.4,52c46,28.2,105.2,36.6,159.2,38.4
		c43.2,1.5,89.8-4.1,129.5-20.6c38.5-16,67.7-46.1,84.7-81.5C458.3,303.2,459.3,267.3,457,228.2z"/>
	<path class="st1" d="M457,228.2c0,0-6-99.1-85-147.3C335.1,58.3,289.6,44.1,244.6,44C200,43.9,153.1,59.6,131,97.8
		c-14.2,24.5-16.3,51.9-23.6,78.4C90.2,239.1,0,278.1,23,351.6c6.8,21.7,24.1,39.6,44.4,52c46,28.2,105.2,36.6,159.2,38.4
		c43.2,1.5,89.8-4.1,129.5-20.6c38.5-16,67.7-46.1,84.7-81.5C458.3,303.2,459.3,267.3,457,228.2z"/>
</g>
<g id="freepik--Plants--inject-177">
	<path class="st2" d="M78.4,377.5c1.8,0.8,6.1,0.7,6.1,0.7s-0.9-2.8-1-3c-0.9-2-3.9-5.2-6.4-4.9c-1.6,0.3-2.7,1.8-2.4,3.3
		c0,0.1,0,0.2,0.1,0.3C75.1,375.6,76.9,376.8,78.4,377.5z"/>
	<path class="st2" d="M79.8,389.9c1.8,0.3,5.7-0.9,6-0.9c0.6,2.2,1.4,4.4,2.3,6.5c0.5,1.2,1.1,2.4,1.7,3.6c-0.3-0.5-0.7-1-0.7-1
		c-1.4-1.7-5.2-4-7.4-3c-1.5,0.7-2.1,2.4-1.4,3.8c0,0.1,0.1,0.2,0.2,0.3c0.8,1.5,2.8,2.3,4.4,2.5s4.9-0.6,5.8-0.9l0.7,1.4
		c1.1,2.2,2.2,4.4,3.3,6.6c0.4,0.8,0.7,1.5,1,2.3l-0.6-0.9c-1.4-1.6-5.2-4-7.4-3c-1.5,0.7-2.1,2.4-1.4,3.8c0,0.1,0.1,0.2,0.2,0.3
		c0.8,1.5,2.8,2.3,4.4,2.5s4.6-0.6,5.7-0.8c0.3,0.8,0.6,1.6,0.9,2.4c0.2,0.5,0.4,1.1,0.5,1.6s0.3,1.1,0.5,1.6c0.2,1,0.5,2.1,0.7,3.1
		l0.4,2.1c-0.3-0.8-1.1-2.3-1.2-2.4c-1.2-1.9-4.5-4.8-6.9-4.1c-1.5,0.4-2.4,2-2,3.6c0,0.1,0.1,0.2,0.1,0.3c0.6,1.6,2.5,2.7,4,3.1
		c1.7,0.5,5.5,0,6,0c0.2,1.1,0.4,2.2,0.6,3.3c0.4,2.3,0.7,4.4,1,6.2h1.6c-0.3-1.8-0.6-4-1.1-6.4c-0.2-1.2-0.5-2.4-0.8-3.6
		c1.2-0.5,2.3-1,3.4-1.6c1.5,1.3,3.1,2.3,4.9,3.1c-0.4,1.1-0.9,2.1-1.3,3.1c-0.9,2-1.7,3.9-2.5,5.4h1.7c0.6-1.4,1.3-3,2.1-4.8
		c0.4-1.1,0.9-2.3,1.4-3.5c0.5,0.1,4.2,0.9,6,0.5c1.6-0.4,3.5-1.3,4.2-2.8c0.7-1.4,0.1-3.2-1.3-3.9c-0.1,0-0.2-0.1-0.3-0.1
		c-2.3-0.8-5.9,1.9-7.2,3.6c-0.1,0.1-0.8,1.3-1.2,2.1l0.6-1.5c0.4-1,0.7-2,1.1-3.1c0.2-0.5,0.3-1.1,0.5-1.6s0.3-1.1,0.4-1.7
		c0.3-1.3,0.6-2.7,0.8-4.1c0.9,0.3,4,1.4,5.7,1.3s3.7-0.7,4.6-2.2c0.9-1.3,0.6-3.1-0.7-4c-0.1-0.1-0.2-0.1-0.3-0.2
		c-2.2-1.1-6.1,1-7.6,2.5c-0.1,0.1-1.1,1.3-1.6,2c0.1-0.8,0.3-1.6,0.4-2.5c0.3-2.4,0.5-4.9,0.8-7.4l0.2-2.3c0.3,0.1,4,1.5,5.9,1.4
		c1.6-0.1,3.7-0.7,4.6-2.2c0.9-1.3,0.6-3.1-0.7-4c-0.1-0.1-0.2-0.1-0.3-0.2c-2.2-1.1-6.1,1-7.6,2.5c-0.1,0.1-1.5,1.9-1.9,2.4
		c0.2-1.6,0.4-3.3,0.6-4.9c0.3-2.2,0.8-4.4,1.4-6.5c0.2,0.1,4,1.5,5.9,1.4c1.6-0.1,3.7-0.7,4.6-2.2c0.9-1.3,0.6-3.1-0.7-4
		c-0.1-0.1-0.2-0.1-0.3-0.2c-2.2-1.1-6.1,1-7.6,2.5c-0.1,0.1-1.7,2-1.9,2.4l0.1-0.4c0.7-2.1,1.5-4.2,2.6-6.1
		c0.6-1.1,1.2-2.1,1.8-3.1c0.7,0.4,3.9,1.9,5.6,2c1.7,0.1,3.7-0.3,4.8-1.6c1.1-1.2,0.9-3-0.3-4.1c-0.1-0.1-0.2-0.1-0.2-0.2
		c-2-1.4-6.2,0.3-7.9,1.6c-0.1,0.1-1,0.9-1.6,1.6c0.3-0.4,0.6-0.9,0.8-1.3c1-1.5,2.1-2.9,3-4.1c0.5-0.7,1-1.3,1.5-1.8
		c0.9,0,4.3-0.1,5.9-0.8s3.2-2,3.5-3.7c0.4-1.6-0.6-3.1-2.1-3.5c-0.1,0-0.2,0-0.3-0.1c-2.4-0.3-5.3,3.1-6.2,5.1c-0.1,0.2-1,3-0.9,3
		h0.1c-0.5,0.5-1,1.1-1.5,1.7c-1,1.2-2,2.5-3.1,4c-1.2,1.6-2.2,3.3-3.2,5.1c-1.1,2-2,4-2.7,6.1v0.1c0-0.7,0-2.7,0-2.9
		c-0.3-2.2-2.1-6.2-4.5-6.6c-1.6-0.3-3.1,0.8-3.3,2.4c0,0.1,0,0.2,0,0.3c-0.1,1.7,1.1,3.5,2.3,4.5c1.4,1.2,5.2,2.4,5.5,2.5
		c-0.7,2.2-1.2,4.4-1.6,6.7c-0.2,1.3-0.4,2.6-0.6,4c0-0.6,0-1.2,0-1.2c-0.3-2.2-2.1-6.2-4.5-6.6c-1.6-0.3-3.1,0.8-3.3,2.4
		c0,0.1,0,0.2,0,0.3c-0.1,1.7,1.1,3.5,2.3,4.5s4.5,2.2,5.3,2.5c-0.1,0.5-0.1,1-0.2,1.5c-0.3,2.5-0.6,4.9-0.9,7.3
		c-0.1,0.8-0.3,1.7-0.4,2.5c0-0.5,0-1,0-1.1c-0.3-2.2-2.1-6.2-4.5-6.6c-1.6-0.3-3.1,0.8-3.3,2.4c0,0.1,0,0.2,0,0.3
		c-0.1,1.7,1.1,3.5,2.3,4.5s4.2,2.1,5.2,2.4c-0.2,0.8-0.3,1.7-0.6,2.5c-0.2,0.5-0.3,1.1-0.4,1.6s-0.3,1.1-0.5,1.6
		c-0.4,1-0.8,2.1-1.1,3c-0.3,0.7-0.5,1.3-0.8,2c0.1-0.8,0.4-2.5,0.4-2.6c0-1.9-0.5-3.8-1.5-5.5c0-0.2,0-0.4,0-0.6
		c-0.2-1.6-1.6-2.7-3.2-2.5c-0.1,0-0.2,0-0.3,0.1c-2.4,0.6-3.9,4.8-4,7c0,0.1,0.1,1.5,0.1,2.4c-0.1-0.5-0.2-1-0.3-1.5
		c-0.2-1-0.5-2.1-0.8-3.2c-0.2-0.5-0.3-1.1-0.5-1.6s-0.4-1.1-0.6-1.7c-0.5-1.3-1-2.6-1.6-3.8c0.9-0.2,4.2-1,5.5-2s2.7-2.6,2.7-4.4
		c0.1-1.6-1.2-2.9-2.8-3c-0.1,0-0.2,0-0.3,0c-2.4,0.3-4.6,4.1-5,6.3c0,0.1-0.2,1.7-0.2,2.6c-0.3-0.8-0.7-1.5-1.1-2.3
		c-1.1-2.2-2.3-4.4-3.4-6.6c-0.4-0.7-0.7-1.4-1-2c0.3-0.1,4.2-1,5.7-2.1c1.3-1,2.7-2.6,2.7-4.4c0.1-1.6-1.2-2.9-2.8-3
		c-0.1,0-0.2,0-0.3,0c-2.4,0.3-4.6,4.1-5,6.3c0,0.2-0.2,2.4-0.3,3c-0.8-1.5-1.5-3-2.2-4.5c-1-2-1.8-4-2.5-6.1c0.2,0,4.2-1,5.7-2.1
		c1.3-1,2.7-2.6,2.7-4.4c0.1-1.6-1.2-2.9-2.8-3c-0.1,0-0.2,0-0.3,0c-2.4,0.3-4.6,4.1-5,6.3c0,0.2-0.2,2.6-0.3,3.1
		c0-0.1-0.1-0.2-0.1-0.4c-0.6-2.1-1-4.3-1.2-6.5c-0.1-1.2-0.2-2.4-0.2-3.5c0.8-0.1,4.3-0.6,5.8-1.5s3-2.3,3.1-4
		c0.2-1.6-0.9-3-2.5-3.3c-0.1,0-0.2,0-0.3,0c-2.4,0-5,3.6-5.7,5.7c0,0.1-0.3,1.3-0.4,2.2c0-0.5,0-1,0-1.5c0-1.9,0.1-3.5,0.2-5.1
		c0.1-0.9,0.2-1.6,0.2-2.3c0.7-0.5,3.5-2.5,4.4-3.9s1.6-3.4,0.9-5c-0.5-1.5-2.2-2.3-3.7-1.8c-0.1,0-0.2,0.1-0.3,0.1
		c-2.2,1.1-2.8,5.5-2.4,7.7c0,0.2,0.8,3,0.9,3l0,0c-0.1,0.7-0.2,1.4-0.3,2.2c-0.2,1.5-0.3,3.2-0.3,5.1c-0.1,2,0,4,0.1,6
		c0.2,2.2,0.5,4.5,1.1,6.6v0.1c-0.4-0.6-1.5-2.3-1.6-2.4c-1.4-1.7-5.2-4-7.4-3.1c-1.5,0.7-2.1,2.4-1.4,3.8c0,0.1,0.1,0.2,0.2,0.3
		C76.2,389,78.2,389.7,79.8,389.9z"/>
	<path class="st2" d="M121.9,378.4c0,0,0.8-2.9,0.8-3c0.3-2.2-0.4-6.5-2.6-7.6c-1.5-0.7-3.2,0-3.8,1.4c0,0.1-0.1,0.2-0.1,0.3
		c-0.6,1.6,0.2,3.6,1,5C118.3,376.1,121.9,378.4,121.9,378.4z"/>
	<path class="st2" d="M32.6,420.7c1.2,0.3,2.4,0.4,3.6,0.4c0,0-0.6-1.7-0.6-1.8c-0.6-1.2-2.3-3.1-3.8-2.9c-0.9,0.2-1.6,1.1-1.4,2
		c0,0.1,0,0.1,0,0.2C30.8,419.5,31.6,420.3,32.6,420.7z"/>
	<path class="st2" d="M33.5,428.1c1.2,0,2.4-0.2,3.6-0.6c0.4,1.3,0.8,2.6,1.4,3.9c0.3,0.7,0.7,1.5,1,2.2c-0.2-0.3-0.4-0.6-0.4-0.6
		c-0.9-1-3.1-2.4-4.4-1.8c-0.9,0.4-1.3,1.4-0.9,2.3c0,0.1,0.1,0.1,0.1,0.2c0.6,0.9,1.6,1.4,2.7,1.5c1.2,0,2.3-0.2,3.5-0.5l0.4,0.8
		c0.7,1.3,1.3,2.6,2,4c0.2,0.5,0.4,0.9,0.6,1.4c-0.2-0.3-0.3-0.5-0.4-0.5c-0.9-1-3.1-2.4-4.4-1.8c-0.9,0.4-1.3,1.4-0.9,2.3
		c0,0.1,0.1,0.1,0.1,0.2c0.6,0.9,1.6,1.4,2.7,1.5c1.1,0,2.3-0.2,3.4-0.5c0.2,0.5,0.4,1,0.5,1.4c0.1,0.3,0.2,0.6,0.3,1l0.3,1
		c0.2,0.6,0.3,1.3,0.4,1.9c0.1,0.4,0.2,0.8,0.3,1.2c-0.2-0.5-0.6-1.4-0.7-1.4c-0.7-1.1-2.7-2.8-4.1-2.5c-0.9,0.3-1.5,1.2-1.2,2.1
		c0,0.1,0,0.1,0.1,0.2c0.5,1,1.4,1.6,2.4,1.9c1.2,0.2,2.4,0.2,3.6,0c0.1,0.7,0.3,1.4,0.4,2c0.2,1.4,0.4,2.6,0.6,3.7h1
		c-0.2-1.1-0.4-2.4-0.7-3.8c-0.1-0.7-0.3-1.4-0.5-2.2c0.7-0.3,1.4-0.6,2-0.9c0.9,0.8,1.9,1.4,2.9,1.9c-0.3,0.6-0.5,1.3-0.8,1.9
		c-0.5,1.2-1,2.3-1.5,3.2h1c0.4-0.9,0.8-1.8,1.2-2.9c0.3-0.6,0.5-1.4,0.8-2.1c1.2,0.3,2.4,0.4,3.6,0.3c1.1-0.2,2-0.8,2.5-1.7
		c0.4-0.9,0.1-1.9-0.8-2.3c-0.1,0-0.1-0.1-0.2-0.1c-1.4-0.5-3.5,1.1-4.3,2.2c0,0.1-0.5,0.8-0.7,1.3c0.1-0.3,0.2-0.6,0.3-0.9
		c0.2-0.6,0.4-1.2,0.7-1.9c0.1-0.3,0.2-0.6,0.3-1s0.2-0.7,0.3-1c0.2-0.8,0.3-1.6,0.5-2.4c1.1,0.4,2.2,0.7,3.4,0.8
		c1.1,0,2.1-0.5,2.8-1.3c0.5-0.8,0.4-1.9-0.4-2.4c-0.1,0-0.1-0.1-0.2-0.1c-1.3-0.7-3.6,0.6-4.6,1.5c-0.1,0-0.7,0.8-1,1.2
		c0.1-0.5,0.2-1,0.2-1.5c0.2-1.5,0.3-2.9,0.5-4.4c0-0.5,0.1-0.9,0.1-1.4c1.1,0.4,2.3,0.7,3.5,0.8c1.1,0,2.1-0.5,2.8-1.3
		c0.6-0.8,0.4-1.9-0.4-2.4c0,0-0.1-0.1-0.2-0.1c-1.3-0.7-3.6,0.6-4.6,1.5c-0.1,0.1-0.9,1.1-1.1,1.4c0.1-1,0.2-2,0.4-3
		c0.2-1.3,0.5-2.7,0.9-4c1.1,0.4,2.3,0.7,3.5,0.8c1.1,0,2.1-0.5,2.8-1.3c0.6-0.8,0.4-1.9-0.4-2.4c-0.1,0-0.1-0.1-0.2-0.1
		c-1.3-0.7-3.6,0.6-4.6,1.5c-0.1,0.1-1,1.2-1.1,1.4c0-0.1,0-0.2,0.1-0.2c0.4-1.3,0.9-2.5,1.5-3.7c0.3-0.6,0.7-1.3,1-1.8
		c1.1,0.6,2.2,1,3.4,1.2c1.1,0.1,2.1-0.3,2.9-1c0.6-0.7,0.6-1.8-0.2-2.4c0,0-0.1-0.1-0.2-0.1c-1.2-0.8-3.7,0.2-4.7,1
		c-0.1,0-0.6,0.6-0.9,0.9l0.5-0.8c0.6-0.9,1.2-1.7,1.8-2.4c0.3-0.4,0.6-0.8,0.9-1.1c1.2,0,2.4-0.2,3.5-0.5c1-0.4,1.8-1.2,2.1-2.2
		c0.2-0.9-0.3-1.9-1.3-2.1c-0.1,0-0.1,0-0.2,0c-1.5-0.2-3.2,1.8-3.7,3c0,0.1-0.6,1.8-0.6,1.8l0,0l-0.9,1c-0.6,0.7-1.2,1.5-1.8,2.4
		c-0.7,1-1.3,2-1.9,3c-0.7,1.2-1.2,2.4-1.6,3.7l0,0c0-0.4,0-1.6,0-1.7c-0.2-1.3-1.3-3.7-2.7-4c-0.9-0.2-1.8,0.5-2,1.4
		c0,0.1,0,0.1,0,0.2c0,1.1,0.6,2.1,1.4,2.7c1,0.7,2.1,1.2,3.3,1.5c-0.4,1.3-0.8,2.6-1,4c-0.1,0.8-0.3,1.6-0.4,2.4c0-0.4,0-0.7,0-0.8
		c-0.2-1.3-1.2-3.7-2.7-4c-1-0.1-1.8,0.5-2,1.5c0,0.1,0,0.1,0,0.2c0,1.1,0.6,2.1,1.4,2.7c1,0.7,2.1,1.1,3.2,1.5
		c0,0.3-0.1,0.6-0.1,0.9c-0.2,1.5-0.3,2.9-0.6,4.4c-0.1,0.5-0.2,1-0.2,1.5c0-0.3,0-0.6,0-0.6c-0.2-1.3-1.2-3.7-2.7-4
		c-0.9-0.1-1.8,0.5-2,1.5c0,0.1,0,0.1,0,0.2c0,1.1,0.6,2.1,1.4,2.7c0.9,0.6,2,1.1,3.1,1.4c-0.1,0.5-0.2,1-0.3,1.5
		c-0.1,0.3-0.2,0.6-0.3,1s-0.2,0.6-0.3,1c-0.2,0.6-0.5,1.2-0.7,1.8c-0.2,0.4-0.3,0.8-0.5,1.2c0.1-0.5,0.2-1.5,0.2-1.6
		c0-1.1-0.3-2.3-0.9-3.3c0-0.1,0-0.3,0-0.4c-0.1-0.9-1-1.6-1.9-1.5c-0.1,0-0.1,0-0.2,0c-1.4,0.4-2.3,2.9-2.4,4.2
		c0,0.1,0,0.9,0.1,1.5c-0.1-0.3-0.1-0.6-0.2-0.9c-0.2-0.6-0.3-1.2-0.5-1.9c-0.1-0.3-0.2-0.6-0.3-1s-0.2-0.7-0.3-1
		c-0.3-0.8-0.6-1.5-0.9-2.3c1.1-0.2,2.2-0.7,3.3-1.2c0.8-0.6,1.4-1.5,1.5-2.5c0-1-0.7-1.8-1.7-1.8c-0.1,0-0.1,0-0.2,0
		c-1.5,0.2-2.7,2.5-3,3.8c0,0.1-0.1,1-0.1,1.5c-0.2-0.5-0.4-0.9-0.6-1.4c-0.7-1.3-1.3-2.6-2-3.9c-0.2-0.4-0.4-0.8-0.6-1.2
		c1.2-0.2,2.3-0.7,3.4-1.2c0.9-0.6,1.5-1.6,1.6-2.6c0-1-0.7-1.8-1.7-1.8c-0.1,0-0.1,0-0.2,0c-1.5,0.2-2.7,2.5-3,3.8
		c0,0.1-0.2,1.5-0.2,1.8c-0.5-0.9-0.9-1.8-1.3-2.7c-0.6-1.2-1-2.4-1.4-3.7c1.2-0.2,2.3-0.7,3.4-1.3c0.9-0.6,1.5-1.5,1.6-2.6
		c0-1-0.7-1.8-1.7-1.8c-0.1,0-0.1,0-0.2,0c-1.5,0.2-2.7,2.5-3,3.8c0,0.1-0.2,1.5-0.2,1.8l-0.1-0.2c-0.4-1.3-0.6-2.6-0.7-3.9
		c-0.1-0.7-0.1-1.4-0.1-2.1c1.2-0.1,2.3-0.4,3.4-0.9c1-0.5,1.6-1.4,1.9-2.5c0.1-0.9-0.5-1.8-1.4-2c-0.1,0-0.2,0-0.3,0
		c-1.5,0-3,2.2-3.4,3.4c0,0.1-0.2,0.8-0.3,1.3c0-0.3,0-0.6,0-0.9c0-1.1,0.1-2.1,0.2-3c0-0.5,0.1-1,0.1-1.4c1-0.6,1.9-1.4,2.6-2.4
		c0.6-0.9,0.8-2,0.5-3c-0.3-0.9-1.3-1.4-2.2-1.1c-0.1,0-0.1,0-0.2,0.1c-1.3,0.7-1.7,3.3-1.4,4.6c0,0.1,0.5,1.8,0.5,1.8l0,0
		c-0.1,0.4-0.1,0.9-0.2,1.4c-0.1,0.9-0.2,1.9-0.2,3c0,1.2,0,2.4,0.1,3.6c0.1,1.4,0.3,2.7,0.7,4l0,0c-0.2-0.4-0.9-1.4-1-1.4
		c-0.9-1-3.1-2.4-4.4-1.8c-0.9,0.4-1.3,1.4-0.9,2.3c0,0.1,0.1,0.1,0.1,0.2C31.3,427.5,32.3,428.1,33.5,428.1z"/>
	<path class="st2" d="M58.6,421.2c0,0,0.5-1.7,0.5-1.8c0.2-1.3-0.2-3.9-1.5-4.5c-0.9-0.4-1.9,0-2.3,0.8c0,0.1,0,0.1-0.1,0.2
		c-0.2,1,0,2.1,0.6,3C56.6,419.8,57.5,420.6,58.6,421.2z"/>
	<path class="st2" d="M405,317.6c-1.8,0.8-6.1,0.7-6.1,0.7s0.9-2.8,1-3c0.9-2,3.9-5.2,6.4-4.9c1.6,0.3,2.7,1.8,2.4,3.3
		c0,0.1,0,0.2-0.1,0.3C408.2,315.7,406.5,317,405,317.6z"/>
	<path class="st2" d="M403.5,330.1c-1.8,0.3-5.7-0.9-6-0.9c-0.6,2.2-1.4,4.3-2.3,6.4c-0.5,1.2-1.1,2.4-1.7,3.7c0.4-0.5,0.7-1,0.7-1
		c1.4-1.7,5.2-4,7.4-3.1c1.5,0.7,2.1,2.4,1.4,3.8c0,0.1-0.1,0.2-0.1,0.3c-0.8,1.5-2.8,2.3-4.5,2.5s-4.9-0.6-5.8-0.9l-0.6,1.4
		c-1.1,2.2-2.2,4.4-3.3,6.6c-0.4,0.8-0.7,1.5-1,2.3c0.3-0.5,0.6-0.8,0.6-0.9c1.4-1.7,5.2-4,7.4-3.1c1.5,0.7,2.1,2.4,1.4,3.8
		c0,0.1-0.1,0.2-0.2,0.3c-0.8,1.5-2.8,2.3-4.5,2.5s-4.6-0.6-5.6-0.9c-0.3,0.8-0.6,1.6-0.9,2.4c-0.2,0.5-0.4,1.1-0.5,1.6
		s-0.3,1.1-0.5,1.6c-0.2,1-0.5,2.1-0.7,3.2c-0.1,0.7-0.3,1.4-0.4,2.1c0.4-0.8,1.1-2.3,1.1-2.4c1.2-1.9,4.5-4.8,6.9-4.1
		c1.5,0.4,2.4,2.1,2,3.6c0,0.1-0.1,0.2-0.1,0.3c-0.6,1.6-2.5,2.7-4,3.1c-1.7,0.5-5.5,0-6,0c-0.2,1.1-0.4,2.2-0.6,3.3
		c-0.4,2.3-0.7,4.4-1,6.2h-1.6c0.3-1.8,0.6-4,1.1-6.4c0.2-1.2,0.5-2.4,0.8-3.7c-1.2-0.5-2.3-1-3.4-1.6c-1.5,1.3-3.1,2.3-4.9,3.1
		c0.4,1.1,0.9,2.1,1.3,3.1c0.9,2,1.7,3.9,2.5,5.4h-1.7c-0.6-1.4-1.4-3-2.1-4.8c-0.5-1.1-0.9-2.3-1.4-3.5c-0.5,0.1-4.2,0.9-6,0.5
		c-1.6-0.4-3.5-1.3-4.2-2.8c-0.7-1.4-0.1-3.2,1.3-3.9c0.1,0,0.2-0.1,0.3-0.1c2.3-0.8,5.9,1.9,7.2,3.6c0.1,0.1,0.8,1.3,1.2,2.1
		c-0.2-0.5-0.4-1-0.6-1.5c-0.4-1-0.7-2-1.1-3.1c-0.2-0.5-0.3-1.1-0.5-1.6s-0.3-1.1-0.4-1.7c-0.3-1.3-0.6-2.7-0.8-4.1
		c-0.9,0.3-4,1.4-5.7,1.3s-3.7-0.7-4.6-2.2c-0.9-1.3-0.6-3.1,0.7-4c0.1-0.1,0.2-0.1,0.3-0.2c2.2-1.1,6.1,0.9,7.6,2.5
		c0.1,0.1,1.1,1.3,1.6,2c-0.1-0.8-0.3-1.7-0.4-2.5c-0.3-2.4-0.5-4.9-0.8-7.4l-0.2-2.2c-0.3,0.1-4,1.5-5.9,1.4
		c-1.6-0.1-3.7-0.7-4.6-2.2c-0.9-1.3-0.6-3.1,0.7-4c0.1-0.1,0.2-0.1,0.3-0.2c2.2-1.1,6.1,1,7.6,2.5c0.1,0.1,1.5,1.9,1.9,2.4
		c-0.2-1.7-0.4-3.3-0.6-4.9c-0.3-2.2-0.8-4.3-1.4-6.5c-0.1,0-4,1.5-5.9,1.4c-1.6-0.1-3.7-0.7-4.6-2.2c-0.9-1.3-0.6-3.1,0.7-4
		c0.1-0.1,0.2-0.1,0.3-0.2c2.2-1.1,6.1,1,7.6,2.5c0.1,0.1,1.6,2,1.9,2.4l-0.1-0.4c-0.7-2.1-1.5-4.2-2.6-6.1
		c-0.6-1.1-1.1-2.1-1.8-3.1c-0.7,0.4-3.9,1.9-5.6,2s-3.7-0.3-4.8-1.6c-1.1-1.2-0.9-3,0.3-4.1c0.1-0.1,0.2-0.1,0.2-0.2
		c2-1.4,6.1,0.3,7.9,1.6c0.1,0.1,1,0.9,1.6,1.6c-0.3-0.4-0.5-0.9-0.8-1.3c-1-1.5-2.1-2.9-3-4.1c-0.5-0.7-1-1.3-1.5-1.8
		c-0.9,0-4.3-0.1-5.9-0.8s-3.2-2-3.5-3.7c-0.4-1.6,0.6-3.1,2.1-3.5c0.1,0,0.2,0,0.3-0.1c2.4-0.3,5.3,3.1,6.2,5.1c0.1,0.2,1,3,0.9,3
		l0,0c0.5,0.5,1,1.1,1.5,1.7c1,1.2,2,2.5,3.1,4c1.2,1.6,2.2,3.3,3.2,5.1c1.1,2,2,4,2.7,6.1v0.1c0-0.7,0-2.7,0-2.9
		c0.3-2.2,2.1-6.2,4.5-6.6c1.6-0.3,3.1,0.8,3.3,2.4c0,0.1,0,0.2,0,0.3c0.1,1.7-1.1,3.5-2.3,4.5c-1.4,1.2-5.2,2.4-5.5,2.5
		c0.7,2.2,1.2,4.4,1.6,6.7c0.2,1.3,0.4,2.6,0.6,4c0-0.6,0-1.2,0-1.3c0.3-2.2,2.1-6.2,4.5-6.6c1.6-0.3,3.1,0.8,3.3,2.4
		c0,0.1,0,0.2,0,0.3c0.1,1.7-1.1,3.5-2.3,4.5s-4.5,2.2-5.3,2.5c0.1,0.5,0.1,1,0.2,1.5c0.3,2.5,0.6,4.9,0.9,7.3
		c0.1,0.9,0.3,1.7,0.4,2.5c0-0.5,0-1,0-1.1c0.3-2.2,2.1-6.2,4.5-6.6c1.6-0.3,3.1,0.8,3.3,2.4c0,0.1,0,0.2,0,0.3
		c0.1,1.7-1.1,3.5-2.3,4.5s-4.2,2.1-5.2,2.4c0.2,0.9,0.4,1.7,0.6,2.5c0.1,0.5,0.3,1.1,0.5,1.6s0.4,1.1,0.5,1.6c0.4,1,0.8,2.1,1.1,3
		c0.3,0.7,0.5,1.3,0.8,2c-0.1-0.8-0.4-2.5-0.4-2.6c0-1.9,0.5-3.8,1.5-5.5c0-0.2,0-0.4,0-0.6c0.2-1.6,1.7-2.7,3.3-2.5
		c0.1,0,0.2,0,0.3,0.1c2.4,0.6,3.9,4.8,4,7c0,0.1-0.1,1.5-0.1,2.4c0.1-0.5,0.2-1,0.4-1.5c0.2-1,0.5-2.1,0.8-3.2
		c0.2-0.5,0.3-1.1,0.5-1.6s0.4-1.1,0.6-1.7c0.5-1.3,1-2.5,1.6-3.8c-0.9-0.2-4.2-1-5.5-2s-2.7-2.6-2.7-4.4c-0.1-1.6,1.2-2.9,2.8-3
		c0.1,0,0.2,0,0.3,0c2.4,0.3,4.6,4.1,5,6.3c0,0.1,0.2,1.7,0.2,2.6c0.4-0.8,0.7-1.5,1.1-2.3c1.1-2.2,2.3-4.4,3.4-6.6
		c0.4-0.7,0.7-1.3,1-2c-0.3-0.1-4.2-1-5.7-2.1c-1.3-1-2.7-2.6-2.7-4.4c-0.1-1.6,1.2-2.9,2.8-3c0.1,0,0.2,0,0.4,0
		c2.4,0.3,4.5,4.1,5,6.3c0,0.2,0.2,2.4,0.3,3c0.8-1.5,1.5-3,2.2-4.5c0.9-2,1.7-4.1,2.4-6.2c-0.1,0-4.2-1-5.7-2.1
		c-1.3-1-2.7-2.6-2.7-4.4c-0.1-1.6,1.2-2.9,2.8-3c0.1,0,0.2,0,0.3,0c2.4,0.3,4.6,4.1,5,6.3c0,0.2,0.2,2.6,0.3,3
		c0-0.1,0.1-0.2,0.1-0.4c0.6-2.1,1-4.3,1.2-6.5c0.1-1.2,0.2-2.4,0.2-3.5c-0.8-0.1-4.3-0.6-5.8-1.4s-3-2.3-3.1-4
		c-0.2-1.6,0.9-3.1,2.5-3.3c0.1,0,0.2,0,0.3,0c2.5,0,5,3.6,5.7,5.7c0,0.1,0.3,1.3,0.5,2.2c0-0.5,0-1,0-1.5c0-1.9-0.1-3.6-0.2-5.1
		c-0.1-0.9-0.2-1.6-0.2-2.4c-0.7-0.5-3.5-2.5-4.4-3.9s-1.5-3.4-0.9-5c0.5-1.5,2.2-2.3,3.7-1.8c0.1,0,0.2,0.1,0.3,0.1
		c2.2,1.1,2.8,5.5,2.4,7.7c0,0.2-0.9,3-0.9,3l0,0c0.1,0.7,0.2,1.4,0.3,2.2c0.1,1.5,0.3,3.2,0.4,5.1c0.1,2,0,4-0.1,6
		c-0.2,2.2-0.5,4.5-1.1,6.6v0.1c0.4-0.6,1.5-2.3,1.6-2.4c1.4-1.6,5.2-4,7.4-3c1.5,0.7,2.1,2.4,1.4,3.8c0,0.1-0.1,0.2-0.1,0.3
		C407.1,329.1,405.1,329.9,403.5,330.1z"/>
	<path class="st2" d="M361.4,318.6c0,0-0.8-2.9-0.8-3c-0.3-2.2,0.4-6.5,2.6-7.6c1.5-0.7,3.2,0,3.8,1.4c0,0.1,0.1,0.2,0.1,0.3
		c0.6,1.6-0.1,3.6-1,5C365.1,316.3,361.4,318.6,361.4,318.6z"/>
	<path class="st2" d="M431.4,343.9c-1.2,0.3-2.4,0.5-3.6,0.4c0,0,0.5-1.7,0.6-1.8c0.6-1.2,2.4-3.1,3.8-2.9c1,0.2,1.6,1.1,1.4,2
		c0,0.1,0,0.1,0,0.2C433.2,342.7,432.4,343.5,431.4,343.9z"/>
	<path class="st2" d="M430.5,351.3c-1.2,0-2.4-0.2-3.6-0.6c-0.4,1.3-0.8,2.6-1.4,3.9c-0.3,0.7-0.6,1.5-1,2.2
		c0.2-0.3,0.4-0.6,0.4-0.6c0.9-1,3.1-2.4,4.4-1.8c0.9,0.4,1.3,1.4,0.9,2.3c0,0.1-0.1,0.1-0.1,0.2c-0.6,0.9-1.6,1.4-2.7,1.5
		c-1.2,0-2.3-0.2-3.5-0.5c-0.1,0.3-0.3,0.6-0.4,0.8c-0.7,1.3-1.3,2.6-2,4c-0.2,0.5-0.4,0.9-0.6,1.4c0.2-0.3,0.4-0.5,0.4-0.5
		c0.9-1,3.1-2.4,4.5-1.8c0.9,0.4,1.3,1.4,0.9,2.3c0,0.1-0.1,0.1-0.1,0.2c-0.6,0.9-1.6,1.4-2.7,1.5c-1.1,0-2.3-0.2-3.4-0.5
		c-0.2,0.5-0.4,1-0.5,1.4c-0.1,0.3-0.2,0.6-0.3,1l-0.3,1c-0.1,0.6-0.3,1.3-0.4,1.9c-0.1,0.4-0.2,0.8-0.3,1.2
		c0.2-0.5,0.6-1.4,0.7-1.4c0.7-1.1,2.7-2.8,4.1-2.5c0.9,0.3,1.5,1.2,1.2,2.2c0,0.1,0,0.1-0.1,0.2c-0.5,1-1.4,1.6-2.4,1.9
		c-1.2,0.2-2.4,0.2-3.6,0c-0.1,0.7-0.3,1.3-0.4,2c-0.2,1.4-0.4,2.6-0.6,3.7h-1c0.2-1.1,0.4-2.4,0.7-3.8c0.1-0.7,0.3-1.4,0.5-2.2
		c-0.7-0.3-1.4-0.6-2-0.9c-0.9,0.8-1.9,1.4-2.9,1.9c0.3,0.6,0.5,1.3,0.8,1.9c0.5,1.2,1,2.3,1.5,3.2h-1c-0.4-0.9-0.8-1.8-1.2-2.9
		c-0.3-0.7-0.5-1.4-0.8-2.1c-1.2,0.3-2.4,0.4-3.6,0.3c-1.1-0.2-2-0.8-2.5-1.7c-0.4-0.9-0.1-1.9,0.8-2.3c0.1,0,0.1-0.1,0.2-0.1
		c1.4-0.5,3.5,1.1,4.3,2.2c0,0.1,0.5,0.8,0.7,1.3c-0.1-0.3-0.2-0.6-0.3-0.9c-0.2-0.6-0.4-1.2-0.6-1.9c-0.1-0.3-0.2-0.6-0.3-1
		s-0.2-0.7-0.3-1c-0.2-0.8-0.3-1.6-0.5-2.4c-1.1,0.4-2.2,0.7-3.4,0.8c-1.1,0-2.1-0.5-2.8-1.3c-0.5-0.8-0.4-1.9,0.4-2.4
		c0.1,0,0.1-0.1,0.2-0.1c1.3-0.7,3.6,0.6,4.6,1.5c0.1,0.1,0.6,0.8,1,1.2c-0.1-0.5-0.2-1-0.2-1.5c-0.2-1.5-0.3-2.9-0.5-4.4
		c0-0.5-0.1-0.9-0.1-1.4c-1.1,0.4-2.3,0.7-3.5,0.8c-1.1,0-2.1-0.5-2.8-1.3c-0.5-0.8-0.4-1.9,0.4-2.4c0.1,0,0.1-0.1,0.2-0.1
		c1.3-0.7,3.6,0.6,4.6,1.5c0.1,0.1,0.9,1.1,1.1,1.4c-0.1-1-0.2-2-0.4-3c-0.2-1.3-0.5-2.6-0.9-3.9c-1.1,0.5-2.3,0.7-3.5,0.8
		c-1.1,0-2.1-0.5-2.8-1.3c-0.6-0.8-0.4-1.9,0.4-2.4c0,0,0.1-0.1,0.2-0.1c1.3-0.7,3.6,0.6,4.6,1.5c0.1,0.1,1,1.2,1.1,1.4l-0.1-0.2
		c-0.4-1.3-0.9-2.5-1.5-3.7c-0.3-0.6-0.7-1.3-1-1.8c-1,0.6-2.2,1-3.4,1.2c-1.1,0.1-2.1-0.3-2.9-1c-0.6-0.7-0.6-1.8,0.2-2.5l0.1-0.1
		c1.2-0.8,3.7,0.2,4.7,1l0.9,0.9c-0.2-0.3-0.3-0.5-0.5-0.8c-0.6-0.9-1.2-1.7-1.8-2.4c-0.3-0.4-0.6-0.8-0.9-1.1
		c-1.2,0-2.4-0.2-3.5-0.5c-1-0.4-1.8-1.2-2.1-2.2c-0.2-0.9,0.4-1.9,1.3-2.1c0.1,0,0.1,0,0.2,0c1.5-0.1,3.2,1.8,3.7,3
		c0,0.1,0.6,1.8,0.5,1.8l0,0l0.9,1c0.6,0.7,1.2,1.5,1.8,2.4c0.7,1,1.3,2,1.9,3c0.7,1.2,1.2,2.4,1.6,3.7l0,0c0-0.4,0-1.6,0-1.7
		c0.2-1.3,1.2-3.7,2.7-4c1-0.1,1.8,0.5,2,1.5c0,0.1,0,0.1,0,0.2c0,1.1-0.5,2.1-1.4,2.7c-1,0.7-2.1,1.2-3.3,1.5c0.4,1.3,0.8,2.6,1,4
		c0.1,0.8,0.3,1.6,0.4,2.4c0-0.4,0-0.7,0-0.8c0.2-1.3,1.3-3.7,2.7-4c0.9-0.2,1.8,0.5,2,1.4c0,0.1,0,0.1,0,0.2c0,1.1-0.5,2.1-1.4,2.7
		c-1,0.7-2.1,1.2-3.2,1.5l0.1,0.9c0.2,1.5,0.3,2.9,0.5,4.4c0.1,0.5,0.2,1,0.2,1.5c0-0.3,0-0.6,0-0.6c0.2-1.3,1.3-3.7,2.7-4
		c1-0.1,1.8,0.5,2,1.5c0,0.1,0,0.1,0,0.2c0,1.1-0.5,2.1-1.4,2.7c-1,0.6-2,1.1-3.1,1.4c0.1,0.5,0.2,1,0.3,1.5c0.1,0.3,0.2,0.6,0.3,1
		s0.2,0.6,0.3,1c0.2,0.6,0.4,1.2,0.7,1.8c0.2,0.4,0.3,0.8,0.5,1.2c-0.1-0.5-0.2-1.5-0.2-1.6c0-1.2,0.3-2.3,0.9-3.3
		c0-0.1,0-0.3,0-0.4c0.1-0.9,1-1.6,1.9-1.5c0.1,0,0.1,0,0.2,0c1.4,0.4,2.3,2.9,2.4,4.2c0,0.1,0,0.9-0.1,1.5c0.1-0.3,0.1-0.6,0.2-0.9
		c0.1-0.6,0.3-1.2,0.5-1.9c0.1-0.3,0.2-0.6,0.3-1s0.2-0.6,0.3-1c0.3-0.8,0.6-1.5,0.9-2.3c-1.1-0.2-2.2-0.6-3.3-1.2
		c-0.9-0.6-1.5-1.5-1.6-2.6c0-1,0.7-1.8,1.7-1.8c0.1,0,0.1,0,0.2,0c1.5,0.2,2.7,2.5,3,3.8c0,0.1,0.1,1,0.1,1.5
		c0.2-0.5,0.4-0.9,0.6-1.4c0.6-1.3,1.4-2.6,2-3.9l0.6-1.2c-1.2-0.2-2.3-0.7-3.4-1.2c-0.9-0.6-1.5-1.5-1.6-2.6c0-1,0.7-1.8,1.7-1.8
		c0.1,0,0.1,0,0.2,0c1.5,0.2,2.7,2.5,3,3.8c0,0.1,0.1,1.5,0.2,1.8c0.5-0.9,0.9-1.8,1.3-2.7c0.6-1.2,1-2.4,1.4-3.7
		c-1.2-0.2-2.3-0.7-3.4-1.2c-0.9-0.6-1.5-1.6-1.6-2.6c0-1,0.7-1.8,1.7-1.8c0.1,0,0.1,0,0.2,0c1.5,0.2,2.7,2.5,3,3.8
		c0,0.1,0.2,1.6,0.2,1.8c0-0.1,0-0.1,0.1-0.2c0.4-1.3,0.6-2.6,0.7-3.9c0.1-0.7,0.1-1.4,0.1-2.1c-1.2-0.1-2.3-0.4-3.4-0.9
		c-1-0.5-1.6-1.4-1.9-2.4c-0.1-0.9,0.5-1.8,1.4-2c0.1,0,0.1,0,0.2,0c1.5,0,3,2.2,3.4,3.4c0,0.1,0.2,0.8,0.3,1.3c0-0.3,0-0.6,0-0.9
		c0-1.1-0.1-2.1-0.1-3c0-0.5-0.1-1-0.1-1.4c-1-0.6-1.9-1.4-2.6-2.4c-0.6-0.9-0.8-2-0.5-3c0.3-0.9,1.3-1.4,2.2-1.1
		c0.1,0,0.1,0,0.2,0.1c1.3,0.7,1.6,3.3,1.4,4.6c0,0.1-0.5,1.8-0.5,1.8l0,0c0,0.4,0.1,0.9,0.2,1.3c0.1,0.9,0.2,1.9,0.2,3
		c0,1.2,0,2.4-0.1,3.6c-0.1,1.4-0.3,2.7-0.7,4l0,0c0.2-0.4,0.9-1.4,1-1.4c0.9-1,3.1-2.4,4.5-1.8c0.9,0.4,1.3,1.4,0.8,2.3
		c0,0.1,0,0.1-0.1,0.2C432.7,350.7,431.6,351.3,430.5,351.3z"/>
	<path class="st2" d="M405.4,344.4c0,0-0.5-1.7-0.5-1.8c-0.2-1.3,0.2-3.9,1.6-4.5c0.9-0.4,1.9,0,2.3,0.9c0,0.1,0.1,0.1,0.1,0.2
		c0.2,1,0,2.1-0.6,3C407.4,343,406.4,343.8,405.4,344.4z"/>
	<path class="st2" d="M460.2,397.5c-1.8,0.8-6.1,0.7-6.1,0.7s0.9-2.8,1-3c0.9-2,3.9-5.2,6.4-4.9c1.6,0.3,2.7,1.7,2.4,3.3
		c0,0.1,0,0.2-0.1,0.3C463.4,395.5,461.7,396.8,460.2,397.5z"/>
	<path class="st2" d="M458.7,409.9c-1.8,0.3-5.7-0.9-6-0.9c-0.6,2.2-1.4,4.4-2.3,6.5c-0.5,1.2-1.1,2.4-1.7,3.6c0.4-0.5,0.7-1,0.7-1
		c1.4-1.7,5.2-4,7.4-3.1c1.5,0.7,2.1,2.4,1.4,3.9c0,0.1-0.1,0.2-0.1,0.3c-0.8,1.5-2.8,2.3-4.4,2.5s-4.9-0.6-5.8-0.9
		c-0.2,0.5-0.5,0.9-0.7,1.4c-1.1,2.2-2.2,4.4-3.3,6.6c-0.4,0.8-0.7,1.5-1,2.3c0.3-0.5,0.6-0.8,0.6-0.9c1.4-1.7,5.2-4,7.4-3
		c1.5,0.7,2.1,2.4,1.4,3.8c0,0.1-0.1,0.2-0.1,0.3c-0.8,1.5-2.8,2.3-4.4,2.5s-4.6-0.6-5.6-0.9c-0.3,0.8-0.6,1.6-0.9,2.4
		c-0.2,0.5-0.4,1.1-0.5,1.6s-0.3,1.1-0.5,1.6c-0.2,1-0.5,2.1-0.7,3.1c-0.2,0.7-0.3,1.4-0.4,2.1c0.4-0.8,1.1-2.3,1.1-2.4
		c1.2-1.9,4.5-4.8,6.9-4.1c1.5,0.4,2.4,2,2,3.6c0,0.1-0.1,0.2-0.1,0.3c-0.6,1.6-2.5,2.7-4,3.1c-1.7,0.5-5.5,0-6,0
		c-0.2,1.1-0.4,2.2-0.6,3.3c-0.4,2.3-0.7,4.4-1,6.1h-1.7c0.3-1.8,0.6-4,1.1-6.4c0.2-1.2,0.5-2.4,0.8-3.6c-1.1-0.5-2.3-1-3.4-1.6
		c-1.5,1.3-3.1,2.3-4.9,3.1c0.4,1.1,0.9,2.1,1.3,3.1c0.9,2,1.7,3.9,2.5,5.4h-1.7c-0.6-1.4-1.3-3-2.1-4.8c-0.5-1.1-0.9-2.3-1.4-3.5
		c-0.5,0.1-4.2,0.9-6,0.5c-1.6-0.4-3.5-1.3-4.2-2.8c-0.7-1.4-0.1-3.2,1.3-3.9c0.1,0,0.2-0.1,0.3-0.1c2.3-0.8,5.9,1.9,7.2,3.6
		c0.1,0.1,0.8,1.3,1.2,2.1c-0.2-0.5-0.4-1-0.5-1.5c-0.4-1-0.7-2-1.1-3.1l-0.5-1.6c-0.2-0.5-0.3-1.1-0.4-1.7
		c-0.3-1.3-0.6-2.7-0.8-4.1c-0.9,0.3-4,1.4-5.7,1.3s-3.7-0.7-4.6-2.2c-0.9-1.3-0.6-3.1,0.7-4c0.1-0.1,0.2-0.1,0.3-0.2
		c2.2-1.1,6.1,1,7.6,2.5c0.1,0.1,1.1,1.3,1.6,2c-0.1-0.8-0.3-1.6-0.4-2.5c-0.3-2.4-0.5-4.9-0.8-7.4c-0.1-0.8-0.2-1.5-0.2-2.3
		c-0.3,0.1-4,1.5-5.9,1.4c-1.6-0.1-3.7-0.7-4.6-2.2c-0.9-1.3-0.6-3.1,0.7-4c0.1-0.1,0.2-0.1,0.3-0.2c2.2-1.1,6.1,0.9,7.6,2.5
		c0.1,0.1,1.5,1.9,1.9,2.4c-0.2-1.7-0.4-3.3-0.6-4.9c-0.3-2.2-0.8-4.4-1.4-6.5c-0.1,0.1-4,1.5-5.9,1.4c-1.6-0.1-3.7-0.7-4.6-2.2
		c-0.9-1.3-0.6-3.1,0.7-4c0.1-0.1,0.2-0.1,0.3-0.2c2.2-1.1,6.1,1,7.6,2.5c0.1,0.1,1.6,2,1.9,2.4c0-0.1-0.1-0.2-0.1-0.4
		c-0.7-2.1-1.5-4.2-2.6-6.1c-0.5-1.1-1.1-2.1-1.8-3.1c-0.7,0.4-3.9,1.9-5.6,2s-3.7-0.3-4.8-1.6c-1.1-1.2-0.9-3,0.3-4.1
		c0.1-0.1,0.2-0.1,0.2-0.2c2-1.4,6.2,0.3,7.9,1.6c0.1,0.1,1,0.9,1.6,1.6c-0.3-0.4-0.6-0.9-0.8-1.3c-1-1.5-2.1-2.9-3-4.1
		c-0.5-0.7-1-1.3-1.5-1.8c-0.9,0-4.3-0.1-5.9-0.8s-3.2-2-3.5-3.7c-0.4-1.6,0.6-3.1,2.1-3.5c0.1,0,0.2,0,0.3-0.1
		c2.4-0.3,5.3,3.1,6.2,5.1c0.1,0.2,1,3,0.9,3l0,0c0.5,0.5,1,1.1,1.5,1.7c1,1.2,2,2.5,3.1,4c1.2,1.6,2.2,3.3,3.2,5.1
		c1.1,2,2,4,2.7,6.1c0,0,0,0,0,0.1c0-0.7,0-2.7,0-2.9c0.3-2.2,2.1-6.2,4.5-6.6c1.6-0.3,3.1,0.8,3.3,2.4c0,0.1,0,0.2,0,0.3
		c0.1,1.7-1.1,3.5-2.3,4.5c-1.4,1.2-5.2,2.4-5.5,2.5c0.7,2.2,1.2,4.4,1.6,6.7c0.2,1.3,0.4,2.6,0.6,4c0-0.6,0-1.2,0-1.3
		c0.3-2.2,2.1-6.2,4.5-6.6c1.6-0.3,3.1,0.8,3.3,2.4c0,0.1,0,0.2,0,0.3c0.1,1.7-1.1,3.5-2.3,4.5s-4.5,2.2-5.3,2.5
		c0.1,0.5,0.1,1,0.2,1.5c0.3,2.5,0.6,4.9,0.9,7.3c0.1,0.9,0.3,1.7,0.4,2.5c0-0.5,0-1,0-1.1c0.3-2.2,2.1-6.2,4.5-6.6
		c1.6-0.3,3.1,0.8,3.3,2.4c0,0.1,0,0.2,0,0.3c0.1,1.7-1.1,3.5-2.3,4.5s-4.2,2.1-5.2,2.4c0.2,0.8,0.4,1.7,0.6,2.5
		c0.2,0.5,0.3,1.1,0.5,1.6s0.4,1.1,0.5,1.6c0.4,1,0.7,2.1,1.1,3l0.8,2c-0.1-0.9-0.4-2.5-0.4-2.6c0-1.9,0.5-3.8,1.5-5.5
		c0-0.2,0-0.4,0-0.6c0.2-1.6,1.6-2.7,3.2-2.5c0.1,0,0.2,0,0.3,0.1c2.4,0.6,3.9,4.8,4,7c0,0.1-0.1,1.5-0.1,2.4c0.1-0.5,0.2-1,0.4-1.5
		c0.2-1,0.5-2.1,0.8-3.2c0.2-0.5,0.3-1.1,0.5-1.6s0.4-1.1,0.6-1.6c0.5-1.3,1-2.6,1.6-3.8c-0.9-0.2-4.2-1-5.5-2s-2.7-2.6-2.7-4.4
		c-0.1-1.6,1.2-3,2.8-3c0.1,0,0.2,0,0.3,0c2.4,0.3,4.5,4.1,5,6.3c0,0.1,0.2,1.7,0.2,2.6c0.4-0.8,0.7-1.5,1.1-2.3
		c1.1-2.2,2.3-4.4,3.4-6.6l1-2c-0.3-0.1-4.2-1-5.7-2.1c-1.3-1-2.7-2.6-2.7-4.4c-0.1-1.6,1.2-2.9,2.8-3c0.1,0,0.2,0,0.3,0
		c2.4,0.3,4.6,4.1,5,6.3c0,0.2,0.2,2.4,0.3,3c0.8-1.5,1.5-3,2.2-4.5c0.9-2,1.7-4.1,2.4-6.2c-0.2,0-4.2-1-5.7-2.1
		c-1.3-1-2.7-2.6-2.7-4.4c-0.1-1.6,1.2-3,2.8-3c0.1,0,0.2,0,0.3,0c2.4,0.3,4.5,4.1,5,6.3c0,0.2,0.3,2.6,0.3,3c0-0.1,0.1-0.2,0.1-0.4
		c0.6-2.1,1-4.3,1.2-6.5c0.1-1.2,0.2-2.4,0.2-3.5c-0.8-0.1-4.3-0.6-5.8-1.5s-3-2.3-3.1-4c-0.2-1.6,0.9-3,2.5-3.3c0.1,0,0.2,0,0.3,0
		c2.5,0,5,3.6,5.7,5.7c0,0.1,0.3,1.3,0.5,2.2c0-0.5,0-1,0-1.5c0-1.9-0.1-3.5-0.2-5.1c-0.1-0.9-0.2-1.6-0.2-2.3
		c-0.7-0.5-3.5-2.5-4.4-3.9s-1.5-3.4-0.9-5c0.5-1.5,2.2-2.3,3.7-1.8c0.1,0,0.2,0.1,0.3,0.1c2.2,1.1,2.8,5.5,2.4,7.7
		c0,0.2-0.9,3-0.9,3l0,0c0.1,0.7,0.2,1.4,0.3,2.2c0.1,1.5,0.3,3.2,0.3,5.1c0.1,2,0,4-0.1,6c-0.2,2.2-0.5,4.5-1.1,6.6v0.1
		c0.4-0.6,1.5-2.3,1.6-2.4c1.4-1.7,5.2-4,7.4-3.1c1.5,0.7,2.1,2.4,1.4,3.8c0,0.1-0.1,0.2-0.1,0.3
		C462.3,408.9,460.3,409.7,458.7,409.9z"/>
	<path class="st2" d="M416.6,398.4c0,0-0.8-2.9-0.8-3c-0.3-2.2,0.4-6.5,2.6-7.6c1.5-0.7,3.2,0,3.8,1.5c0,0.1,0.1,0.2,0.1,0.3
		c0.6,1.6-0.2,3.6-1,5C420.3,396.1,416.6,398.4,416.6,398.4z"/>
	<path class="st2" d="M486.6,423.7c-1.2,0.3-2.4,0.4-3.6,0.4c0,0,0.6-1.7,0.6-1.8c0.6-1.2,2.4-3.1,3.8-2.9c0.9,0.2,1.6,1,1.4,2
		c0,0.1,0,0.1,0,0.2C488.4,422.5,487.6,423.3,486.6,423.7z"/>
	<path class="st2" d="M485.7,431.1c-1.2,0-2.4-0.2-3.6-0.6c-0.4,1.3-0.8,2.6-1.4,3.9c-0.3,0.7-0.7,1.5-1,2.2l0.4-0.6
		c0.9-1,3.1-2.4,4.4-1.8c0.9,0.4,1.3,1.4,0.9,2.3c0,0.1-0.1,0.1-0.1,0.2c-0.6,0.9-1.6,1.4-2.7,1.5c-1.2,0-2.3-0.2-3.5-0.5
		c-0.1,0.3-0.3,0.6-0.4,0.8c-0.7,1.3-1.3,2.6-2,4c-0.2,0.5-0.4,0.9-0.6,1.4c0.2-0.3,0.3-0.5,0.4-0.5c0.9-1,3.1-2.4,4.4-1.8
		c0.9,0.4,1.3,1.4,0.9,2.3c0,0.1-0.1,0.1-0.1,0.2c-0.6,0.9-1.6,1.4-2.7,1.5c-1.1,0-2.3-0.2-3.4-0.5c-0.2,0.5-0.4,1-0.5,1.4
		s-0.2,0.6-0.3,1l-0.3,1c-0.1,0.6-0.3,1.3-0.4,1.9c-0.1,0.4-0.2,0.8-0.3,1.2c0.2-0.5,0.6-1.4,0.7-1.4c0.7-1.1,2.7-2.9,4.1-2.5
		c0.9,0.3,1.5,1.2,1.2,2.1c0,0.1,0,0.1-0.1,0.2c-0.5,1-1.4,1.6-2.4,1.9c-1.2,0.2-2.4,0.2-3.6,0c-0.1,0.7-0.3,1.3-0.4,2
		c-0.2,1.4-0.4,2.6-0.6,3.7h-1c0.2-1.1,0.4-2.4,0.7-3.8c0.1-0.7,0.3-1.4,0.5-2.2c-0.7-0.3-1.4-0.6-2-1c-0.9,0.8-1.9,1.4-2.9,1.9
		c0.3,0.6,0.5,1.3,0.8,1.9c0.5,1.2,1,2.3,1.5,3.2h-1c-0.4-0.9-0.8-1.8-1.2-2.9c-0.3-0.6-0.5-1.4-0.8-2.1c-1.2,0.3-2.4,0.4-3.6,0.3
		c-1.1-0.2-2-0.8-2.5-1.7c-0.4-0.9-0.1-1.9,0.8-2.3c0.1,0,0.1-0.1,0.2-0.1c1.4-0.5,3.5,1.1,4.3,2.2c0,0.1,0.5,0.8,0.7,1.2
		c-0.1-0.3-0.2-0.6-0.3-0.9c-0.2-0.6-0.4-1.2-0.6-1.9c-0.1-0.3-0.2-0.6-0.3-1s-0.2-0.7-0.3-1c-0.2-0.8-0.4-1.6-0.5-2.4
		c-1.1,0.4-2.2,0.7-3.4,0.8c-1.1,0-2.1-0.5-2.8-1.3c-0.5-0.8-0.4-1.9,0.4-2.4c0.1,0,0.1-0.1,0.2-0.1c1.3-0.7,3.6,0.6,4.6,1.5
		c0.1,0.1,0.6,0.8,1,1.2c-0.1-0.5-0.2-1-0.2-1.5c-0.2-1.5-0.3-2.9-0.5-4.4c0-0.5-0.1-0.9-0.1-1.4c-1.1,0.4-2.3,0.7-3.5,0.8
		c-1.1,0-2.1-0.5-2.8-1.3c-0.6-0.8-0.4-1.8,0.4-2.4c0.1,0,0.1-0.1,0.2-0.1c1.3-0.7,3.6,0.6,4.6,1.5c0.1,0.1,0.9,1.1,1.1,1.4
		c-0.1-1-0.2-2-0.4-2.9c-0.2-1.3-0.5-2.6-0.9-3.9c-1.1,0.5-2.3,0.7-3.5,0.8c-1.1,0-2.1-0.5-2.8-1.3c-0.5-0.8-0.4-1.9,0.4-2.4
		c0.1,0,0.1-0.1,0.2-0.1c1.3-0.7,3.6,0.6,4.6,1.5c0.1,0.1,1,1.2,1.1,1.4l-0.1-0.2c-0.4-1.3-0.9-2.5-1.5-3.7c-0.3-0.6-0.7-1.2-1-1.8
		c-1.1,0.6-2.2,0.9-3.4,1.2c-1.1,0.1-2.1-0.3-2.9-1c-0.6-0.7-0.6-1.8,0.2-2.4c0,0,0.1-0.1,0.2-0.1c1.2-0.8,3.7,0.2,4.7,1
		c0,0,0.6,0.5,0.9,0.9c-0.2-0.3-0.3-0.5-0.5-0.8c-0.6-0.9-1.2-1.7-1.8-2.5l-0.9-1.1c-1.2,0-2.4-0.1-3.5-0.5c-1-0.4-1.8-1.2-2.1-2.2
		c-0.2-0.9,0.3-1.9,1.3-2.1c0.1,0,0.1,0,0.2,0c1.5-0.2,3.2,1.8,3.7,3c0,0.1,0.6,1.8,0.6,1.8l0,0c0.3,0.3,0.6,0.6,0.9,1
		c0.6,0.7,1.2,1.5,1.9,2.4c0.7,1,1.3,2,1.9,3c0.7,1.2,1.2,2.4,1.6,3.7l0,0c0-0.4,0-1.6,0-1.7c0.2-1.3,1.3-3.7,2.7-4
		c0.9-0.2,1.8,0.5,2,1.4c0,0.1,0,0.1,0,0.2c0,1.1-0.6,2.1-1.4,2.7c-1,0.7-2.1,1.2-3.3,1.5c0.4,1.3,0.8,2.6,1,4
		c0.1,0.8,0.3,1.6,0.4,2.4c0-0.4,0-0.7,0-0.8c0.2-1.3,1.2-3.7,2.7-4c0.9-0.2,1.8,0.5,2,1.4c0,0.1,0,0.1,0,0.2c0,1.1-0.5,2.1-1.4,2.7
		c-1,0.6-2.1,1.1-3.2,1.5l0.1,0.9c0.2,1.5,0.3,2.9,0.5,4.4c0.1,0.5,0.2,1,0.3,1.5c0-0.3,0-0.6,0-0.6c0.2-1.3,1.2-3.7,2.7-4
		c0.9-0.1,1.8,0.5,2,1.5c0,0.1,0,0.1,0,0.2c0,1.1-0.6,2.1-1.4,2.7c-0.9,0.6-2,1.1-3.1,1.4c0.1,0.5,0.2,1,0.3,1.5s0.2,0.6,0.3,1
		s0.2,0.6,0.3,1c0.2,0.6,0.5,1.2,0.7,1.8c0.2,0.4,0.3,0.8,0.5,1.2c-0.1-0.5-0.2-1.5-0.2-1.6c0-1.2,0.3-2.3,0.9-3.3
		c0-0.1,0-0.3,0-0.4c0.1-0.9,1-1.6,1.9-1.5c0.1,0,0.1,0,0.2,0c1.4,0.4,2.3,2.9,2.4,4.2c0,0.1,0,0.9-0.1,1.5c0.1-0.3,0.1-0.6,0.2-0.9
		c0.1-0.6,0.3-1.2,0.5-1.9c0.1-0.3,0.2-0.6,0.3-1s0.2-0.7,0.4-1c0.3-0.8,0.6-1.5,0.9-2.3c-1.1-0.2-2.2-0.7-3.3-1.2
		c-0.9-0.6-1.5-1.5-1.6-2.6c0-1,0.7-1.8,1.7-1.8c0.1,0,0.1,0,0.2,0c1.5,0.2,2.7,2.5,3,3.8c0,0.1,0.1,1,0.1,1.5
		c0.2-0.5,0.4-0.9,0.6-1.4c0.6-1.3,1.4-2.6,2-3.9c0.2-0.4,0.4-0.8,0.6-1.2c-1.2-0.3-2.3-0.7-3.4-1.3c-0.9-0.6-1.5-1.5-1.6-2.6
		c0-1,0.7-1.8,1.7-1.8c0.1,0,0.1,0,0.2,0c1.5,0.2,2.7,2.5,3,3.8c0,0.1,0.1,1.5,0.2,1.8c0.5-0.9,0.9-1.8,1.3-2.7
		c0.6-1.2,1-2.4,1.4-3.7c-1.2-0.2-2.3-0.7-3.4-1.3c-0.9-0.6-1.5-1.5-1.6-2.6c0-1,0.7-1.8,1.7-1.8c0.1,0,0.1,0,0.2,0
		c1.5,0.2,2.7,2.5,3,3.8c0,0.1,0.1,1.6,0.1,1.8c0-0.1,0.1-0.1,0.1-0.2c0.4-1.3,0.6-2.6,0.7-3.9c0.1-0.7,0.1-1.4,0.1-2.1
		c-1.2-0.1-2.3-0.4-3.4-0.9c-0.9-0.5-1.6-1.4-1.9-2.4c-0.1-1,0.5-1.8,1.5-2c0.1,0,0.1,0,0.2,0c1.5,0,3,2.2,3.4,3.4
		c0,0.1,0.2,0.8,0.3,1.3c0-0.3,0-0.6,0-0.9c0-1.1-0.1-2.1-0.1-3c0-0.5-0.1-1-0.1-1.4c-1-0.6-1.9-1.4-2.6-2.3c-0.6-0.9-0.8-2-0.5-3
		c0.3-0.9,1.3-1.4,2.2-1.1c0.1,0,0.1,0,0.2,0.1c1.3,0.7,1.6,3.3,1.4,4.6c0,0.1-0.5,1.8-0.5,1.8l0,0c0.1,0.4,0.1,0.9,0.2,1.3
		c0.1,0.9,0.2,1.9,0.2,3c0,1.2,0,2.4-0.1,3.6c-0.1,1.4-0.3,2.7-0.7,4l0,0c0.2-0.4,0.9-1.4,1-1.4c0.9-1,3.1-2.4,4.4-1.8
		c0.9,0.4,1.3,1.4,0.9,2.3c0,0.1-0.1,0.1-0.1,0.2C487.8,430.5,486.8,431.1,485.7,431.1z"/>
	<path class="st2" d="M460.6,424.2c0,0-0.5-1.7-0.5-1.8c-0.2-1.3,0.2-3.9,1.5-4.5c0.9-0.4,1.9,0,2.3,0.9c0,0.1,0,0.1,0.1,0.2
		c0.2,1,0,2.1-0.6,3C462.6,422.8,461.6,423.6,460.6,424.2z"/>
</g>
<g id="freepik--Clouds--inject-177">
	<path class="st3" d="M448,89.4c-1.5-7.5-9.1-10.3-14.8-12.8c-7.1-3.1-11.1-5.9-14.8-11c-2-2.8-3.7-5.7-5.2-8.8
		c-5.9-11.5-15.9-19.9-27.1-22.7c-9-2.3-19.5-0.4-25.4,8c-4.9,7-7,18.6-14.6,19.8c-3.7,0.6-7.2-1.7-10.5-3.9c-4.6-3-9.4-6-14.5-7
		s-10.9-0.1-14.9,4c-5.9,6-7.7,18-15.4,19.7c-6.6,1.5-12.8-6.3-19.3-4.6c-5.4,1.4-8,8.4-11.6,13.3c-1.7,2.4-3.8,4.4-6.3,5.9
		L448,89.4z"/>
	<path class="st3" d="M441.5,122.7c-0.6-2.9-3.6-4.1-5.9-5.1c-2.3-0.8-4.4-2.3-5.9-4.3c-0.8-1.1-1.5-2.3-2.1-3.5
		c-2.1-4.4-6-7.6-10.7-9c-3.6-0.9-7.7-0.2-10,3.2c-1.9,2.8-2.8,7.3-5.8,7.8c-1.5,0.2-2.9-0.7-4.1-1.6c-1.7-1.3-3.7-2.2-5.8-2.8
		c-2.1-0.5-4.3,0.1-5.9,1.6c-2.3,2.4-3.1,7.1-6.1,7.8c-2.6,0.6-5.1-2.5-7.6-1.8c-2.1,0.6-3.2,3.3-4.6,5.3c-0.7,0.9-1.5,1.7-2.5,2.3
		L441.5,122.7z"/>
	<path class="st3" d="M181.8,117.9c-0.6-2.9-3.6-4.1-5.9-5.1c-2.3-0.8-4.4-2.4-5.8-4.3c-0.8-1.1-1.5-2.3-2.1-3.5
		c-2.1-4.4-6-7.6-10.7-9c-3.6-0.9-7.7-0.2-10,3.2c-1.9,2.8-2.8,7.3-5.8,7.8c-1.4,0.2-2.9-0.7-4.1-1.5c-1.7-1.3-3.7-2.2-5.8-2.8
		c-2.1-0.5-4.3,0.1-5.9,1.6c-2.3,2.4-3.1,7.1-6.1,7.8c-2.6,0.6-5.1-2.5-7.6-1.8c-2.1,0.6-3.2,3.3-4.6,5.3c-0.7,0.9-1.5,1.7-2.5,2.3
		H181.8z"/>
	<path class="st3" d="M160.6,256.1c-1-5-6.1-6.9-9.9-8.6c-4.8-2.1-7.4-4-9.9-7.3c-1.3-1.9-2.5-3.8-3.5-5.9
		c-4-7.7-10.7-13.3-18.1-15.2c-6-1.5-13.1-0.3-17,5.3c-3.3,4.7-4.7,12.4-9.8,13.3c-2.5,0.4-4.8-1.2-7-2.6c-3.1-2.1-6.3-4-9.7-4.7
		c-3.6-0.9-7.3,0.1-10,2.7c-3.9,4-5.2,12.1-10.3,13.2c-4.4,1-8.6-4.2-12.9-3.1c-3.6,1-5.3,5.6-7.7,8.9c-1.1,1.6-2.6,2.9-4.2,4
		L160.6,256.1z"/>
	<path class="st3" d="M169.6,286.9c-0.4-2-2.4-2.7-3.9-3.4c-1.6-0.6-2.9-1.6-3.9-2.9c-0.5-0.7-1-1.5-1.4-2.3c-1.4-2.9-4-5.1-7.2-6
		c-2.5-0.8-5.1,0.1-6.7,2.1c-1.3,1.9-1.9,4.9-3.9,5.2c-1,0-2-0.3-2.8-1c-1.2-0.9-2.5-1.5-3.8-1.9c-1.4-0.3-2.9,0-3.9,1
		c-1.6,1.6-2,4.8-4.1,5.2c-1.7,0.4-3.4-1.7-5.1-1.2c-1.4,0.4-2.1,2.2-3,3.5c-0.4,0.6-1,1.2-1.7,1.6L169.6,286.9z"/>
</g>
<g id="freepik--Rocks--inject-177">
	<path class="st4" d="M356.5,341.9c0,0-41.5-47.7-47-55.9s-29.3,0-39.9,0.9s-20.4,16-24.8,19.5s-8,22.2-8,22.2s-6.2,6.2-8.9,8
		s-3.6,22.2-2.7,25.7s54.1,27.5,60.3,29.3s48.8-2.7,55.9-2.7s29.3-13.3,27.5-25.7S356.5,341.9,356.5,341.9z"/>
	<path class="st5" d="M367.3,370.9c0-5.5-0.5-11.1-1.2-16.6c-2.4-4.7-5.6-8.9-9.6-12.4c0,0-41.5-47.7-47-55.9
		c-1.2-1.8-3.2-2.8-5.8-3.3c-2.2,1.4-4.5,3.4-4.5,5.2c-0.1,3.6-1.8,27.9-1.8,31.3s1.7,21,1.7,21s5,14.3,8.4,15.1
		s38.6,21.8,44.5,21.8c2.9,0,6.1,1.3,8.8,1.6C363.5,376.5,365.6,373.9,367.3,370.9z"/>
	<path class="st5" d="M491.8,487.7L480,464l-15-24l-12-14c0,0-28-16-32-16s-35-8-35-8l-35,29l-112.4-19.9c0,0-25.6,9.9-28.6,11.9
		s-47,14-52,15s-70,49-70,49l54.1,0.7H491.8z"/>
	<polyline class="st5" points="437.9,443 431.9,451.3 413.9,454.6 430.5,467.9 439,472.6 420,471 384,443.3 409.6,438.5 	"/>
	<path class="st4" d="M170.9,361.1c0,0-12.2-13.9-16.6-13.9s-17.8,3.5-21.3,5.3s-12.4,24-15.1,25.7s-26.6,23.1-31,27.5
		S70,417.3,70,422.6s8,10.6,8,10.6h84.3c0,0,25.7-24.8,27.5-33.7S170.9,361.1,170.9,361.1z"/>
	<path class="st4" d="M287.2,371.8c0,0-62.8-22.4-68.2-24.8s-41.7,6.5-41.7,6.5s-30.2,14.2-34.6,20.4s-3.5,10.6-0.9,14.2
		s107.3,36.4,118,37.3c10.7,0.9,39-5.3,46.1-19.5S287.2,371.8,287.2,371.8z"/>
	<path class="st5" d="M231.6,389.6l-4.4,3.1c0,0-19.4-7.9-18.1-4.4s29.6,26,30,30s0.8,7.4,6.6,9.6s12.4,4.9,16.8,2.3
		s9.3-3.1,9.3-8.4s-2.2-16.8-2.2-16.8S234.7,388.3,231.6,389.6z"/>
	<polygon class="st5" points="232.9,398.3 260.4,418.6 263.2,421 272.7,414.8 	"/>
	<path class="st4" d="M379.6,396c-3,8.3-5.3,17.7-13.3,23.1s-30.2,16-37.3,16s-57.7-14.2-63.9-18.6s-27.5-12.4-33.7-19.5
		s0.9-23.1,0.9-23.1s20.4-15.1,26.5-14.9c6.1,0.2,52.4-4.6,59.5-2.9s59.4,22.2,59.4,22.2C381,383.6,381.7,390.1,379.6,396z"/>
	<path class="st4" d="M238.6,411.1c0,0-23.1-22.2-28.4-26.6s-31.9-2.7-37.2-0.9s-20.5,12.4-24,16.9s-13.3,26.6-13.3,26.6l9.8,14.2
		c0,0,36.4,3.5,49.7,3.5s37.3-0.9,37.3-0.9s9.8-8,13.3-16S238.6,411.1,238.6,411.1z"/>
	<path class="st5" d="M209.9,403.2c9,12.6,18.1,16.5,15.7,20s-9.4,1.6-13.8,1.2s-8.2,7.5-10.6,11c-2,3-3.8,6.2-5.5,9.4
		c13.4,0,36.6-0.9,36.6-0.9s9.8-8,13.3-16s-7.1-16.9-7.1-16.9s-23.1-22.2-28.4-26.6C210.2,384.5,200.9,390.6,209.9,403.2z"/>
	<path class="st4" d="M123,433l22-19l18-3c0,0,37-4,41,1s15,20,15,20l-8,19c0,0-1,11-8,15s-39,16-39,16h-25c0,0-17-11-17-17
		S123,433,123,433z"/>
	<path class="st5" d="M219,432c0,0-11-15-15-20c-0.4-0.4-0.9-0.8-1.5-1l-0.1,0.6l-0.4,2c0,0,0.8,18.4,2.4,22.3s5.1,10.2,2.4,12.9
		s-8.2,8.6-12.1,12.1s-14.1,6.7-18,7s-7.4-2-14.5-2.4s-9.4-0.4-12.5,0.8c-3,1.3-5.9,2.9-8.6,4.7c0,0-5.5-3.1-6.7-7.5
		s-4.3-8.2-5.5-8.2s-2.3,9.8-2.7,14.5c-0.1,0.5-0.1,1-0.3,1.5c5,5.2,13.2,10.5,13.2,10.5h25c0,0,32-12,39-16s8-15,8-15L219,432z"/>
	<path class="st4" d="M127.3,487.2l0.7-4.2v-11c0-3,8-23,8-29s-13-21-16-23s-15-9-18-9s-17,2-25,6s-22,17-29,23S7.7,488.3,7.7,488.3
		"/>
	<path class="st4" d="M381,440c-2.1-2.1-6.5-5.8-10.8-9.3c-2.6-2.3-5.2-4.4-8-6.4L358,421h-0.5c-2.2-1.5-4.1-2.8-5.4-3.7
		c-5.3-3.5-24-16-31-15.1s-39.9,1.8-42.6,6.2s-56.8,35.5-56.8,35.5h0.8L216,447l-13,19c0,0,13,9,16,9s19.7-1.4,26.7-2.4
		c6.3-0.9,49.1,8.6,57.7,10.5c1,0.2,2,0.4,3.1,0.5l53.4,4.1c4.3,0.3,8.6-0.6,12.3-2.8l13.8-8c0,0,7-4,11-7s4-10,4-13
		S386,445,381,440z"/>
	<path class="st5" d="M381,440c-0.8-0.8-1.8-1.7-3-2.8l-3.9,2.8c0,0,4.3,9,7.1,10.4s7.1,7.1,7.1,7.1s1.9,6.6-1.4,10.4
		s-22.3,10-28.4,10.9c-5,0.6-10.1,0.9-15.2,0.9c0,0,8.5-1.9,16.6-3.3s14.7-3.3,16.6-5.2s3.8-5.2,2.4-4.7c-3.7,1.3-7.5,2.4-11.4,3.3
		c-6.2,1.4-14.7,2.9-20.4,2.9s-16.6,0.9-19.9,0.9s-44.5-6.2-46.9-6.6c-1.5-0.3-2.9-0.8-4.3-1.4c0,0-2.8,2.8,4.3,4.3
		s6.6,3.3,21.3,5.2s29.4,4.7,27,5.2s-9,0.9-19-1s-16.1-1.4-21.8-3.8c-5.4-2.3-10.9-4.2-16.6-5.7c-8-2.4-11.8-3.3-20.9-3.8
		s-12.3-0.5-16.1-0.5s-7.6,5.2-12.8,6.2c-2,0.4-4.9,0.8-7.6,1.2c2.2,1.2,4.1,2.1,5,2.1c3,0,19.7-1.4,26.7-2.4
		c6.3-0.9,49.1,8.6,57.7,10.5c1,0.2,2,0.4,3.1,0.5l53.4,4.1c4.3,0.3,8.6-0.6,12.3-2.8l13.9-8c0,0,7-4,11-7s4-10,4-13
		S386,445,381,440z"/>
	<path class="st4" d="M344,317.8c0,0-10,9-10,13s6,21,6,24s15,43,18,53s7,20,9,23s7,11,7,11l8.5,6.2c6,4.4,13.1,6.9,20.6,7.4
		l13.5,0.8c8.6,0.5,16.8-3.6,21.5-10.8l7.1-10.9c2.8-4.2,4.2-9.1,4-14.1c-0.2-4.6-1.8-8.1-8.3-16.6c-4.2-5.6-56-59-62-65
		S350,313.8,344,317.8z"/>
	<path class="st6" d="M401,457c8,6,14,15,25,15c10,0,25,0,26.5,13.2"/>
	<path class="st6" d="M364.3,461.2c-2.1,0.9-4,1.7-4.9,2c-2.8,1-12.3,2.4-26.5,2.4h-34.6"/>
	<path class="st6" d="M373.6,457l-4.4,2"/>
	<path class="st6" d="M351,454.8c4.2-1.7,8.2-3.7,12.2-5.8l-4.7-4.3"/>
	<path class="st6" d="M266,459c3.9-0.1,7.4-0.1,9.5-0.1c6.6,0,47.4,1.4,59.2,0.5c3.8-0.4,7.4-1.3,11-2.5"/>
	<path class="st6" d="M246.6,459.4l8.5-0.2"/>
	<path class="st6" d="M381.5,433.1c-2.9-2.8-6.4-5.9-6.4-5.9"/>
	<path class="st6" d="M428.8,402.2c0,0,2.6,5.5,5,9.3s4.6,13,2.4,17.5s-6.7,12.3-13.3,14.7s-14.7,4.7-18.5,2.9s-18-8.1-19.4-10"/>
	<path class="st5" d="M440.1,434.9c-2.5,3.1-2.8,5-5.8,7.1s-18.6,5.5-18.6,5.5l-14.2,2.9l-13.3-6.2l-17.1-9.5c0,0,9.5,9,12.3,11.4
		s8.5,5.2,10.4,6.2s11.4,2.8,14.2,2.8c2.5,0,10.4,0.4,15.4,0.5c6-1.4,11.2-5.1,14.5-10.2l7.1-10.9c2.8-4.2,4.2-9.1,4-14.1
		c-0.2-4.6-1.8-8.1-8.3-16.6l0.4,10.1C441.4,413.9,442.6,431.8,440.1,434.9z"/>
	<path class="st6" d="M237.3,388.9c0,0-1.2,2.4,2.4,5.5s13.7,7.8,13.7,7.8"/>
	<line class="st6" x1="256.9" y1="403.8" x2="263.5" y2="406.9"/>
	<line class="st6" x1="243.6" y1="401.8" x2="265.9" y2="412.4"/>
	<path class="st4" d="M423.2,422.3c0,0-42.2,40-42.2,42s5,12.7,5,12.7s19.7,4.7,23,4.7s13.3-2,17.3-5.3s16-4,18-13.3
		s8-12.4,4.7-21.9S441.5,415,423.2,422.3z"/>
	<path class="st6" d="M443,437.7c-0.5,6.3,2.1,13.6-0.4,19.7c-3,7.2-11.6,9.6-17.6,13.6"/>
	<path class="st6" d="M437.4,453.7c-5,6.1-10.3,11.7-17.7,14.6"/>
	<path class="st6" d="M389,475c0,0,12,2,16.7,2.7s15.3-2,15.3-2"/>
	<path class="st5" d="M127.3,487.2l0.7-4.2v-11c0-3,8-23,8-29c0-3.2-3.7-8.9-7.6-13.9c0.3,2.5,1.2,10.3,1.2,12.6
		c0,2.7-6.7,16-10.7,16.7s-20.7-2-20.7-2s-18-1.3-22,5.3s-11.3,18-11.3,18l-11,8L127.3,487.2z"/>
	<path class="st6" d="M150.5,458c-3.8,2.5-6.3,4.4-6.3,4.4"/>
	<path class="st6" d="M197.6,447l-16.3,8c0,0-11.5,0.4-14.1,0.4c-1.9,0-6.2-0.9-10.2-0.3"/>
	<path class="st6" d="M126,439.3c0.3-1.5,0.5-3.1,0.6-4.6"/>
	<path class="st6" d="M103.1,453.2c0,0,11,1.8,14.1,0s6.6-7.9,7.5-9.3c0.3-0.5,0.5-1,0.6-1.5"/>
	<path class="st6" d="M97.4,449.1c-2.2,0-4.4,0.1-6.2,0.1c-6.6,0-12.4,0.4-14.6,3.5s-4.4,11-4.9,13.7c-0.3,1.9-0.4,3.8-0.4,5.7"/>
	<path class="st6" d="M109.8,448.8L104,449"/>
</g>
<g id="freepik--Character--inject-177">
	<path class="st2" d="M166.3,372.1c0,0,34.1,3.9,38.8,3.9s14.2,0.4,16.4-0.4s9.1-6,9.1-6l11.6-1.7c1.8-1,3.7-1.9,5.6-2.6
		c1.7-0.4,12.1,0.9,12.1,0.9l18.1,1.7c0,0,15.1-12.1,17.2-14.7s-3-33.7-3-35.8s4.3-15.5,5.2-19s1.7-10.4,1.7-10.4l-38.4,4.8
		c0,0-9.1,15.1-10.8,19c-1.2,2.6-1.8,5.4-1.7,8.2c-0.1,3-0.4,6.1-0.9,9.1c-0.4,3-4.8,6.5-6.5,7.3s-10.4,4.3-10.4,4.3
		s-1.7,7.3-1.7,9.5c0.1,1.6,0.4,3.2,0.9,4.7c0,0-7.3,3.9-9.5,5.2s-9.9,3.5-15.5,4.3s-18.6,1.7-23.3,3S166.3,372.1,166.3,372.1z"/>
	<path class="st7" d="M211.3,127c-2.7,2.9-4.8,6.5-5.9,10.3c-1.7,6.1,1.9,8.8,4.8,11.1s2.5,3.6,1,6.1c-1.1,1.7-0.6,3.9,1.1,5
		c0.2,0.1,0.4,0.2,0.6,0.3c1.5,0.6,3.8,0.4,3,3.4s-1.3,4.8,0.6,5.4s5.5,1.7,4.6,4s-0.4,5.3,0.9,5.5s3.1-1.3,3.1,0.8
		s-2.7,3.8,0.2,5.5s4.6,1.3,4.4,2.3s-1.3,2.1-0.8,3.6s2.7,1.3,2.9,2.3s-1,1.7-0.6,3.6s1.1,2.1,3.1,2.5s1.9,0.4,1.9,1.9
		s-0.4,1.7,1.7,1.9s4.2-0.4,6.9-2.5s5.5-12.4,6.5-16.6s2.9-10.1,0.2-17.6s-14.9-31.1-18.7-35.5c-3.6-3.8-8.5-6.1-13.8-6.3
		C215.1,124.1,211.3,127,211.3,127z"/>
	<path class="st8" d="M239.7,225.2c0,0,0.3,1.3-2.1,2.7s-3.2,0.6-3.4,2.7s-0.2,2.7-0.5,3.2s-4.4,2.6-6.1,3.2
		c-1.2,0.5-2.3,1.1-3.2,1.9l-0.3,6.4c2.6,0,5.2-0.4,7.7-1c2.2-0.6,4.5-1.1,6.8-1.4c0,0,1.6,1.1,3.4-6.3S242.1,223.5,239.7,225.2z"/>
	<path class="st4" d="M232,240.5c0.2-2.9-0.9-4-1.8-4.5c-0.8,0.4-1.7,0.8-2.5,1.1c-1.2,0.5-2.3,1.1-3.2,1.9l-0.3,6.4
		c2.4,0,4.7-0.3,7-0.8C231.6,243.4,231.9,242,232,240.5z"/>
	<path class="st8" d="M237.9,217.1c0,0,2.1,11.6-1.1,17.2s-1.5,12.4,0.2,14.7s3.8,1.9,5,0.4s4-9.5,3.4-20.4S239,213.7,237.9,217.1z"
		/>
	<path class="st9" d="M245.9,176.8c0,0-10.3,27.9-10.1,35.3s6.9,14.3,7.3,15.7s-0.4,11.3-1.5,14.5s-3.4,9.4-3.4,9.4
		c4.7,3.1,10.2,4.9,15.9,5.3c5.4,0.2,10.9-0.5,16.1-2.1l3.8-2.5c0,0-5.5-14.1-9-25.8s-5-36.9-4.6-45.6s0.8-11.8-2.5-12
		S247.4,174.1,245.9,176.8z"/>
	<path class="st10" d="M240.2,252.5c0,0-20.8,0.9-35.3,6.2c-14.4,5.3-21.7,7.8-21.9,15.5s11.1,36.1,11.1,36.1s12,32.8,12.4,34.8
		c0.4,1.5,0.4,3.2-0.2,4.7c-0.4,0.7,1.6,5.5,6.2,5.5s8-3.5,8.6-8.4s-2.4-8.9-4-16.9s-4.4-26-4.4-32.4s-2.2-14.6-2.2-14.6
		s17.1,5.8,26.4,8.6s36.8,2.2,41.9,1.3s4.7-7.5,0.2-17.3s-18.4-16.4-23.3-18.6C250.9,255,240.2,252.5,240.2,252.5z"/>
	<path class="st7" d="M255.8,257.2c-4.9-2.2-15.5-4.7-15.5-4.7s-20.8,0.9-35.3,6.2c-14.4,5.3-21.7,7.8-21.9,15.5
		s11.1,36.1,11.1,36.1s6.2,16.9,9.8,27.2c5.1-0.9,9.8-3.4,13.3-7.2c0-0.1,0-0.1-0.1-0.2c-1.5-7.9-4.4-26-4.4-32.4
		s-2.2-14.6-2.2-14.6s17.1,5.8,26.4,8.6s36.8,2.2,41.9,1.3s4.7-7.5,0.2-17.3S260.6,259.4,255.8,257.2z"/>
	<path class="st4" d="M207,350.2c0,0-0.6-2-1.6-0.4s-1,4.2-1.8,5s-2.6,4.4-7.1,6.7s-8.5,3.4-8.9,5s2.4,3,6.9,3.2s13.3,0.4,17.1-0.6
		s6.1-3.4,10.3-4.9s7.1-1.6,7.9-3.4s-2.8-11.3-4.4-13.1s-2.4-4.4-4-4.4s-2,2-2.2,3.6s-0.4,3.8-4.4,4.8S207,350.2,207,350.2z"/>
	<path class="st9" d="M206.8,367.5c-6.4,1.5-15.8-0.4-19.1-1.1v0.1c-0.4,1.6,2.4,3,6.9,3.2s13.3,0.4,17.1-0.6s6.1-3.4,10.3-4.9
		s7.1-1.6,7.9-3.4c0.3-0.6,0-2-0.4-3.8c-1.1,0.4-2.4,1-4,1.8C221.1,360.9,214.6,365.7,206.8,367.5z"/>
	<path class="st10" d="M246.7,252.7c0,0-18.2,4.7-29.1,7.3s-18.2,4.9-18.9,12.6s-8.2,61.9-9.5,65.6s-4,14.4-4,17.1
		c0,3.3,2.7,6.1,6,6.2c4.2,0.4,6.4-1.5,7.1-3.5s2.7-7.5,5.1-15.5s12-22,14.4-33.5c1.5-7.4,1.9-14.9,1.3-22.4c6.1,1,12.1,2.4,18,4.2
		c9.1,2.9,34.4,3.5,48.6,2.4s18.2-9.1,18.4-15.5s-6.2-17.5-10-21.3c-3.8-3.8-10.6-4.7-23.3-4.9C262.8,251.5,254.7,251.9,246.7,252.7
		z"/>
	<path class="st7" d="M304.1,277.8c0.2-6.4-6.2-17.5-10-21.3c-3.8-3.8-10.6-4.7-23.3-4.9c-8.1-0.1-16.1,0.3-24.2,1.1
		c0,0-18.2,4.7-29.1,7.3s-18.2,4.9-18.9,12.6s-8.2,61.9-9.5,65.6c-0.3,0.8-0.6,1.8-0.9,3c4.4,2.5,9.3,3.9,14.3,4
		c0.3-0.9,0.6-1.8,0.9-2.8c2.4-8,12-22,14.4-33.5c1.5-7.4,1.9-14.9,1.3-22.4c6.1,1,12.1,2.4,18,4.2c9.1,2.9,34.4,3.5,48.6,2.4
		S303.9,284.2,304.1,277.8z"/>
	<path class="st4" d="M185,351.4c0,0-0.5-0.7-2.3,1.4c-3.3,3.6-7.3,6.4-11.7,8.3c-5.6,2.3-11.7,3-13.4,4.8s-0.5,4.4,0,5.1
		s16.4,2.3,24.4,2.3s17.6-0.2,19.2-0.9s1.9-5.1,1.6-7.8s-1.4-4.4-1.4-5.8s0.7-3.7,0-4.6s-3.8,1.8-5.4,3s-7.5,0.9-8.7-0.2
		S185.9,351.4,185,351.4z"/>
	<path class="st9" d="M183.5,370.3c-9.7,0-21.9-1.3-26.8-1.8c0.1,0.9,0.4,1.8,0.8,2.5c0.5,0.7,16.4,2.3,24.4,2.3s17.6-0.2,19.2-0.9
		c0.9-0.4,1.4-1.8,1.6-3.5C196.4,369.8,190,370.3,183.5,370.3z"/>
	<path class="st10" d="M217.6,132.9c0,0-4,5.7-3.6,10.1s1.9,5.5,3.1,6.9c1.7,1.8,2.4,4.3,1.9,6.7c-0.6,3.2-1.5,3.8-1,5.2
		s4.4,1.7,4.4,1.7c2.1,2.4,4.3,4.7,6.7,6.9c2.1,1.7,4,2.7,6.1,1.3c1.7-1,3.3-2.2,4.8-3.4c0.6-0.6,5,5.7,5.7,9.7s-2.3,8.4-0.6,9
		s4.6-4.4,6.5-9.4s3.8-5.9,3.8-5.9s-10.9-22.3-17.9-31.7s-14.1-10.5-16.6-9.7C219.4,130.6,218.3,131.6,217.6,132.9z"/>
	<path class="st3" d="M227.7,163.1c0,0,3.6-1,4-3.8"/>
	<path class="st3" d="M218.8,149.9c0,0,2.5,4,4.4,4.4s5.1-0.8,5.7-3.4s-1.1-5.5-1.1-5.5S222,146.5,218.8,149.9z"/>
	<path class="st3" d="M218.8,149.9l-3.1,2.3c0.5,1.3,1.6,2.3,2.9,2.7"/>
	<line class="st3" x1="227.7" y1="145.3" x2="238" y2="141.3"/>
	<path class="st2" d="M225.2,151.2c0.5,0.9,0.6,1.9,0.2,2.1s-1.1-0.4-1.5-1.4s-0.6-1.9-0.2-2.1S224.7,150.3,225.2,151.2z"/>
	<path class="st3" d="M219.1,147.2c0.8-1.7,2.6-2.6,4.4-2.5"/>
	<path class="st7" d="M217.6,131.4c-0.3,1.4,0.5,2.7,1.9,3l0,0c2.5,0.8,5.2-0.2,4.8,2.7s-2.1,4.2,1.3,4.8s4.8,0,4.8,3.8
		s-2.5,5.2,1.5,6.1s6.1,0.4,5.5,4.6s-2.9,5.7,0.2,6.9s5.4-0.6,5.4,2.7s0,5.2,1.9,5.5s3.4-2.1,3.8,0.6s0.6,4,2.1,4.2s1.9-1.5,4-0.9
		c2.1,0.6,10.3-3.4,12.8-6.1s6.7-2.1,9.9,2.3s9.9,18.7,10.3,21.6s1,3.4,3.2,0.2s4.2-6.5,2.3-9.7s-3.2-2.7-1.9-6.3s4-5.2,1.3-8.4
		s-3.4-2.5-2.9-6.9s1.5-5-1.3-6.7s-3.8-1.9-3.8-4.8s1.3-4.8-1.3-6.3s-3.4-1.1-3.4-3.6s0.6-3.4-1.3-4.8s-3.6-2.3-3.6-4.8s0-2.7-1.7-4
		c-1.6-1.1-2.7-2.8-3-4.8c-0.2-1.7-1.1-3.4-2.5-3.8s-2.3,0.8-3.2-1.5s-1.5-3.4-3.2-3.6c-1.9-0.2-3.6-1.2-4.8-2.7
		c-1.1-1.5-1.9-2.3-3.4-1.7s-5.2,0.8-6.7-0.6s-4-2.1-5.9-0.6c-1.5,1.4-3.6,1.9-5.5,1.3c-1.7-0.6-3.4-0.6-4.6,0.6s-1,1.9-3.2,1.3
		s-4.4-0.6-5.5,1.2c-0.9,1.3-2.2,2.4-3.6,3.1c-1.1,0.6-3.8,1.1-4.2,3.2s-0.2,3.1-1.1,3.8s-2.5,2.7-2.5,4s2.3,3.8,4.6,4.2"/>
	<path class="st8" d="M253.7,177c0,0-0.9,26.2-1.7,39.3s3.2,17.9,5.7,21.2c2.5,3.2,25.8,34,27.1,37.2s2.7,9,3.2,9.5
		s6.3-0.2,10.5-1.3s6.7-5.3,6.7-5.3s1.1-5.2-1.7-13.4s-6.5-13.6-6.9-19.3s-3.2-25.4-4.2-34.6c-1.1-9-3-17.9-5.5-26.6
		c-1.7-5.9-3.4-10.1-6.3-12.8c-2-1.8-4.1-3.2-6.5-4.4L253.7,177z"/>
	<path class="st11" d="M291.1,264.5l-3,19.9l-5.5-11.5C282.5,272.9,289.4,264.7,291.1,264.5z"/>
	<path class="st8" d="M257.1,236.8c0,0,17.8,15.5,25.2,20.8c7.4,5.3,8.8,6.9,8.8,6.9s-10.1,15.1-10.7,15.1s-4-8.2-7.8-14.5
		S257.5,239.8,257.1,236.8z"/>
	<polygon class="st8" points="272.4,160.8 251.6,173.8 254.3,180.8 276.6,166.1 	"/>
	<polygon class="st4" points="194.6,257.8 216.8,265.6 249.7,252.6 228.9,246.4 	"/>
	<polygon class="st12" points="227,257.5 224.1,256.6 220.6,258 223.6,258.9 	"/>
	<polygon class="st12" points="220.4,254.3 225.8,252.3 224.1,251.9 218.8,253.8 	"/>
	<polygon class="st12" points="213.6,255.7 215.2,256.2 218.9,254.9 217.2,254.4 	"/>
	<polygon class="st12" points="210.3,254.6 212,255.2 215.7,253.9 214,253.3 	"/>
	<polygon class="st12" points="210.5,255.7 208.6,255.1 205.8,255.9 208,256.6 	"/>
	<polygon class="st12" points="224,255.5 229.3,253.4 227.4,252.8 221.9,254.8 	"/>
	<polygon class="st12" points="217.7,258.1 215.3,257.3 212.8,258.2 215.2,259.1 	"/>
	<polygon class="st12" points="206.2,259.6 209.7,258.3 208,257.7 204.5,259 	"/>
	<polygon class="st12" points="222.6,256.1 220.4,255.4 216.8,256.7 219.1,257.5 	"/>
	<polygon class="st12" points="209.5,257.2 211.2,257.7 213.7,256.8 212,256.2 	"/>
	<polygon class="st12" points="206.5,257.2 204,256.4 200,257.5 203,258.5 	"/>
	<polygon class="st12" points="219.9,261.7 216.6,263.1 218,263.5 221.5,262.2 	"/>
	<polygon class="st12" points="230.9,253.8 225.5,256 228.3,256.9 233.6,254.6 	"/>
	<polygon class="st12" points="217.2,253.3 222.5,251.4 220.8,250.9 215.5,252.8 	"/>
	<polygon class="st12" points="229.8,257.4 232.3,258.2 238.2,255.9 235.1,255 	"/>
	<polygon class="st12" points="218.5,261.2 215.3,260.1 211.9,261.5 215.2,262.6 	"/>
	<polygon class="st12" points="222.3,259.5 219.2,258.5 216.7,259.5 219.9,260.6 	"/>
	<polygon class="st12" points="211.2,258.8 207.8,260.1 210.5,261 213.8,259.6 	"/>
	<polygon class="st12" points="225.7,260.6 223.7,260 221.3,261.1 223,261.7 	"/>
	<polygon class="st12" points="225.1,259.4 227.2,260.1 230.8,258.7 228.4,258 	"/>
	<polygon class="st4" points="216.8,265.6 201.4,230.2 176.9,226.5 190.6,257 	"/>
	<path class="st8" d="M262.1,188.7c0,0-3.1,7.8-2.5,14.1s5.9,19.7,6.7,23.5c0.5,2,0.4,4.1-0.2,6.1c0,0-1-1.1-1.7,0.9
		s-3.1,7.8-3.1,7.8l-1.9,1l7.8,14.7l2.5,4.2c0,0,5.7-2.9,7.8-4.8c2.1-1.9,7.6-3.4,9.9-6.3s0.8-2.9,2.5-7.1s2.7-13.8,1.5-16.6
		s-2.3-3.6-2.3-6.5s2.7-7.8,0.6-15.5s-3.6-19.7-7.1-22.9s-6.3-2.7-8.2-2.7"/>
	<path class="st13" d="M278.1,243.3c0.8,0.6,1.6,1.1,2.5,1.5"/>
	<path class="st13" d="M267.8,235.4c0,0,4.5,3.6,8.2,6.4"/>
	<path class="st13" d="M272.2,235.6c0,0,11.6,3.4,11.1,4.6s-5.5-1.1-6.5-1.5"/>
	<path class="st14" d="M252.8,248.6c0,0-17.9,10.3-19.3,10.3s-5.5-3.1-6.9-2.7c-1.8,0.7-3.5,1.4-5.2,2.3c-1.7,0.8-5-0.2-5.2,1.1
		s1.3,2.3,1.3,2.3s-3.8,0.8-4.6,0.8s-1.7,1.5,0,2.9s4.8,1.5,5.3,1.7s3.8,1.9,6.5,1.9s8.2-2.9,11.8-3.8s22.3-6.1,22.3-6.1
		S255.6,248.6,252.8,248.6z"/>
	<path class="st14" d="M217.6,262c2.3,0.4,4.6,0.4,6.9-0.2"/>
	<path class="st8" d="M261.7,240c0,0,5.9,9.2,9.4,15.3c3.4,6.1,2.3,6.5,1.3,7.5s-8,2.1-10.3,2.5c-2,0.5-4-0.8-4.5-2.8
		c0-0.2-0.1-0.4-0.1-0.6c0-2.3-2.9-8.2-4-10.3s-2.9-1.7-2.9-3.4s3.8-4,5.5-5.5C257.9,240.9,260.4,239.8,261.7,240z"/>
	<path class="st4" d="M218.3,233.6c0,0,5.3,2.4,7.1,3.5s4.5,2.2,4.3,3.5s-3.5,5.3-5,5.6s-4.5-1.9-6.4-1.9s-3.7-5.1-3.1-6.9
		S217,233.8,218.3,233.6z"/>
	<path class="st4" d="M211.4,240.5c0,0-1.6,1.4-1.6,2.7s0.8,5.1,1.8,6s1.4-0.3,1.4-1.3s-1.4-1.8-0.8-3.1s1.4-3.4,1.4-3.4
		S212.7,239.9,211.4,240.5z"/>
	<path class="st4" d="M214.6,238.4c-1.2-0.2-2.4,0.3-3.2,1.3c-1.1,1.6-0.2,3.4,0.8,5.1c0.8,1.4,2.2,2.4,3.9,2.6
		c1.3,0.2,1.9-0.3,0.8-1.8c-0.9-1.4-1.6-2.9-2.1-4.5C214.6,240.3,214.6,239.4,214.6,238.4z"/>
	<path class="st4" d="M216.8,234.4c0,0-3.1,1.8-3.1,3.2c0.1,2.3,0.6,4.5,1.4,6.6c0.8,1.8,3.2,4,3.5,3.2s-0.3-2.9-0.6-4.5
		s-0.8-7.6-0.8-7.6c0.2-0.3,0.2-0.6-0.1-0.8C217.1,234.5,217,234.4,216.8,234.4z"/>
	<path class="st4" d="M220.4,235.9c0,0-1.4-2.7-3.2-2.7s-0.6,1.9-0.5,5.6s1,7.4,2.1,8.7s1.8,0.3,1.4-1.9s-0.5-5.6-0.5-6.1v-1.1"/>
	<path class="st4" d="M224.9,240.5c-0.2,1.2-0.6,2.3-1.3,3.2c-1,1.1-2.1,3.1-1.3,3.5s1.6,0,2.4-1s2.9-2.7,3.9-4.5
		c0.7-1.3,0.3-2.9-1-3.7c-0.1-0.1-0.3-0.1-0.4-0.2c-0.6-0.1-1.3-0.1-1.9-0.2"/>
	<path class="st5" d="M262.6,366.5c0,0,10.5,13.2,20.5,13.2s19.3-1.7,26-1.7s23.5-2.5,28.5-5s2.5-5-1.7-7.5s-25.2-12.6-25.2-12.6
		L262.6,366.5z"/>
	<path class="st14" d="M256.4,309.1c-4.5,7.3-9.4,14.3-14.6,21.1c-8,10.2-12.2,12.2-14,16.9s-0.9,9.1,0.7,10.2s17.3,4.2,21.3,4.4
		c2.9,0.1,5.8-0.1,8.6-0.7l0.4-2c0,0-7.1,0.2-8.9,0s-8.9-5.3-11.3-6.9s-3.6-2.2-3.6-2.2c4.2-5.5,8.8-10.7,13.5-15.8
		c4.6-4.9,8.8-10.3,12.4-16C261.1,318.1,259.8,306.8,256.4,309.1z"/>
	<path class="st4" d="M235.1,349.9c0,0-2.9,4-2.9,5.5"/>
	<path class="st14" d="M291.9,286.7c0,0-20.2,4-24.8,4.9s-6.6,2.2-9.1,7.8s-3.8,7.8-2.7,13.1c1.1,5.3,1.5,24.4,1.5,32.6
		s-1.8,13.8-0.5,16.4c1.3,2.6,5.1,4.2,6.2,5.1s10,4,12.6,4.7s6.4,3.5,9.8,3.5s10.9-2.7,16-4.9s12.6-1.8,16.4-3.5s5.5-3.1,4.7-7.8
		s-4.4-7.8-5.1-13.1s-0.2-13.3-1.3-17.3s-3.8-8.6-4.4-15.5s0.5-16-2-19.3s-1.6-2.7-5.8-4.2S295.7,284.7,291.9,286.7z"/>
	<path class="st14" d="M286.8,296.6c10-2.2,12.4-3.1,16-4.9s5.1,0.2,5.1,0.2l0.2-0.1c-1.2-1.7-1.3-1.5-4.7-2.7
		c-4.2-1.5-7.8-4.4-11.5-2.4c0,0-20.2,4-24.8,4.9s-6.6,2.2-9.1,7.8s-3.8,7.8-2.7,13.1c1.1,5.3,1.5,24.4,1.5,32.6s-1.8,13.8-0.5,16.4
		c1.3,2.6,5.1,4.2,6.2,5.1c1.6,0.9,3.3,1.6,5,2.1c0.1-0.2,0.1-0.4-0.1-0.6c-1.5-1.8,0.7-8.9,2-18.4s0.9-25.1-0.4-29.5
		s-4-9.5-2.2-14.4S276.8,298.9,286.8,296.6z"/>
	<path class="st14" d="M276.2,332.1c0,0-0.9,25.5-1.5,31s-1.5,6.4-0.9,7.5s7.5,3.8,10,3.8s3.3,0.2,3.5-2.7s-2-23.5-1.8-28.4
		s1.5-9.8-1.1-11.3S278.8,326.8,276.2,332.1z"/>
	<path class="st4" d="M308.7,318.1c0,0-13.1,4.4-21.3,7.1s-11.1,2.4-11.5,5.1s0,2.7,1.1,3.1c2.2,1.2,3.8,3.2,4.4,5.5
		c1.1,3.3,2.2,6,3.8,6s24.4-3.5,28.2-5.1s5.3-2,4.9-4.4s-0.7-6.6-1.6-11.8S312.3,316.8,308.7,318.1z"/>
	<polygon class="st5" points="290.4,339.2 292.4,355.9 295.7,354.8 293.2,338.4 	"/>
	<polygon class="st5" points="310.6,335.4 313.6,351 316.5,350.1 313.6,334.3 	"/>
	<path class="st4" d="M274.2,308.2c0,0,7.3-1.5,16.2-3.8s17.1-4.9,17.1-4.9v2.5c0,0-10,3.1-15.3,4.2s-10.4,1.8-11.3,2
		s-3.5,0.9-4.9,1.3l-1.3,0.5L274.2,308.2z"/>
</g>
</svg>
